<?xml version="1.0" standalone="no"?>
<!DOCTYPE svg PUBLIC "-//W3C//DTD SVG 1.1//EN" "http://www.w3.org/Graphics/SVG/1.1/DTD/svg11.dtd" >
<svg xmlns="http://www.w3.org/2000/svg">
<metadata>Generated by IcoMoon</metadata>
<defs>
<font id="cw_icon" horiz-adv-x="1024">
<font-face units-per-em="1024" ascent="1024" descent="0" />
<missing-glyph horiz-adv-x="1024" />
<glyph unicode="&#x20;" horiz-adv-x="0" d="" />
<glyph unicode="&#xe900;" glyph-name="images" d="M871.303 1023.999h-718.607c-84.229 0-152.696-68.467-152.696-152.696v-718.607c0-84.229 68.467-152.696 152.696-152.696h718.607c84.229 0 152.696 68.467 152.696 152.696v718.607c0 84.229-68.467 152.696-152.696 152.696zM152.695 959.748h718.607c48.791 0 88.445-39.655 88.445-88.445v-438.111l-196.066 192.351c-12.549 12.248-32.627 12.248-45.076-0.1l-289.129-285.415-154.504 153.399c-12.348 12.348-32.326 12.449-44.875 0.402l-165.848-159.523v536.998c0 48.791 39.655 88.445 88.445 88.445zM871.303 64.25h-718.607c-48.791 0-88.445 39.655-88.445 88.445v92.461l187.733 180.605 154.805-153.7c12.549-12.449 32.627-12.449 45.176-0.1l289.33 285.616 218.453-214.337v-190.544c0-48.791-39.655-88.445-88.445-88.445zM323.061 600.143c75.595 0 137.136 61.54 137.136 137.136s-61.44 137.136-137.136 137.136-137.136-61.54-137.136-137.136 61.54-137.136 137.136-137.136zM323.061 810.164c40.157 0 72.885-32.728 72.885-72.885s-32.728-72.885-72.885-72.885-72.885 32.728-72.885 72.885 32.728 72.885 72.885 72.885z" />
<glyph unicode="&#xe901;" glyph-name="button" d="M972.675 352.378c0-12.926-10.515-23.427-23.427-23.427h-10.526c4.23 34.547 5.217 69.477 2.84 104.039 0.862 23.821-6.071 47.672-19.592 67.328l-1.064 1.543-1.28 1.373c-15.197 16.379-34.794 28.17-56.208 34.065-9.091 16.513-23.54 29.604-41.221 36.999l-1.004 0.394c-8.698 3.201-17.784 4.83-27.045 4.83-0.166 0-0.332 0-0.486-0.001l-0.245-0.001c-5.531-0.086-11.009-0.617-16.399-1.598-10.186 11.546-23.559 20.069-38.654 24.371l-0.805 0.214c-6.093 1.521-12.336 2.321-18.669 2.28l-0.849-0.012c-5.164-0.178-10.299-0.769-15.355-1.733-2.498 11.993-5.224 29.794-7.327 59.596-2.325 34.327-31.094 61.215-65.492 61.219h-0.003c-36.443 0-66.215-29.644-66.376-66.076-0.532-110.335-2.891-153.979-4.28-177.527-15.31-7.087-29.451-16.768-41.547-28.48l-1.026-0.992-0.909-1.093c-26.224-31.751-27.487-76.698-3.279-109.83 2.040-3.44 4.213-7.079 6.456-10.868h-444.152c-12.911 0-23.427 10.515-23.427 23.427v429.949c0 12.926 10.515 23.427 23.427 23.427h874.499c12.911 0 23.427-10.515 23.427-23.427v-429.949zM859.805 220.706c-0.306-0.741-0.634-1.557-0.961-2.457l-215.288 0.029c-9.927 16.773-23.239 39.436-37.14 63.141-18.086 30.832-36.796 62.709-50.522 85.778l-0.731 1.22-0.86 1.132c-10.477 13.841-10.345 32.727 0.177 46.377 10.617 9.968 23.506 17.589 37.359 22.071l17.006 5.508 0.731 17.862c0.144 3.668 0.392 7.775 0.7 12.985 1.386 23.35 3.973 66.827 4.537 183.174 0.038 8.271 6.784 14.997 15.051 14.997 7.51-0.001 13.797-5.871 14.309-13.445 3.537-50.173 8.926-70.559 12.497-84.034 1.076-4.063 1.852-6.998 2.237-9.589l5.522-37.237 32.646 18.76c6.801 3.897 14.503 6.138 22.338 6.499 1.782-0.031 3.575-0.247 5.312-0.647 8.064-2.418 14.751-8.141 18.385-15.742l10.512-21.963 22.483 9.347c5.734 2.379 11.782 3.652 17.99 3.757h0.051c3.008 0 5.956-0.505 8.795-1.478 8.53-3.738 15.053-10.911 17.951-19.769l4.955-15.129 15.749-2.286c14.83-2.154 28.643-9.179 39.122-19.846 6.787-10.56 10.167-23.164 9.522-35.711l-0.084-1.582 0.118-1.582c5.084-70.908-5.444-143.55-30.452-210.098v0zM949.248 857.077h-874.499c-41.223 0-74.75-33.526-74.75-74.75v-429.949c0-41.223 33.527-74.75 74.75-74.75h474.381c4.323-7.37 8.684-14.8 13.024-22.181 17.819-30.365 34.647-59.047 44.781-75.995l7.468-12.496 282.052-0.033 5.535 18.189c3.244 10.661 4.664 14.632 5.292 16.090l0.394 0.989c9.23 24.501 16.679 49.747 22.3 75.436h19.274c41.223 0 74.75 33.527 74.75 74.75v429.949c0 41.224-33.527 74.75-74.75 74.75v0z" />
<glyph unicode="&#xe902;" glyph-name="color" d="M479.881 847.95c-26.601 0-47.993-21.392-47.993-47.993s21.392-47.993 47.993-47.993c26.601 0 47.993 21.392 47.993 47.993s-21.392 47.993-47.993 47.993zM735.844 751.964c-26.601 0-47.993-21.392-47.993-47.993s21.392-47.993 47.993-47.993c26.601 0 47.993 21.392 47.993 47.993s-21.392 47.993-47.993 47.993zM894.009 448.008h-159.382c-70.588 0-134.777-35.79-171.373-95.589-36.397-59.389-39.201-131.988-7.404-194.378 9.796-19.197 9.599-43.194-0.198-62.59-4.799-9.202-15.799-25.2-37.39-28.598-12.6-1.997-25.794-3.001-39.399-3.001-109.18 0-228.171 62.59-310.949 163.176-87.987 107.184-121.78 241.168-94.782 377.347 34.189 173.171 173.978 312.351 347.744 346.357 30.396 6.003 60.99 9.004 90.989 9.004 246.166 0 447.141-199.772 447.935-445.131 0-36.596-29.603-66.596-65.789-66.596zM511.876 1023.924c-33.794 0-68.393-3.199-103.39-9.995-198.768-38.791-358.942-198.57-398.143-396.742-69.187-350.15 222.367-617.113 468.533-617.113 16.592 0 33.001 1.204 49.196 3.795 82.381 12.798 122.786 109.18 84.986 183.379-46.195 90.79 19.791 196.771 121.78 196.771h159.382c71.592 0 129.581 59.192 129.78 130.587-1.004 281.559-229.97 509.32-512.123 509.32zM287.91 719.968c-26.601 0-47.993-21.392-47.993-47.993s21.392-47.993 47.993-47.993c26.601 0 47.993 21.392 47.993 47.993s-21.392 47.993-47.993 47.993zM223.919 496.002c-26.601 0-47.993-21.392-47.993-47.993s21.392-47.993 47.993-47.993c26.601 0 47.993 21.392 47.993 47.993s-21.392 47.993-47.993 47.993z" />
<glyph unicode="&#xe903;" glyph-name="iconography" d="M958.763 580.937c-1.874-3.276-4.906-4.938-8.945-4.938h-427.642c-4.039 0-7.055 1.66-8.945 4.938-2.423 4.236-0.7 7.207 0.045 8.457l213.82 365.714c1.904 3.245 4.877 4.877 8.9 4.877s6.994-1.646 8.9-4.877l213.82-365.714c0.748-1.265 2.484-4.221 0.045-8.457v0zM1013.957 621.714l-213.822 365.698c-14.248 24.381-39.208 36.586-64.137 36.586s-49.904-12.206-64.137-36.586l-213.82-365.698c-28.526-48.761 7.116-109.714 64.137-109.714h427.642c57.021 0 92.663 60.967 64.139 109.714v0zM255.999 64.001c-105.859 0-192 86.14-192 192 0 105.874 86.14 192 192 192 105.874 0 192-86.126 192-192 0-105.859-86.126-192-192-192v0zM255.999 512c-141.379 0-255.999-114.621-255.999-255.999 0-141.381 114.621-255.999 255.999-255.999s255.999 114.62 255.999 255.999c0 141.379-114.621 255.999-255.999 255.999v0zM639.998 64.001v320h320v-320h-320zM959.997 448.001h-320c-35.337 0-63.999-28.662-63.999-63.999v-320c0-35.337 28.662-63.999 63.999-63.999h320c35.337 0 63.999 28.662 63.999 63.999v320c0 35.337-28.662 63.999-63.999 63.999v0z" />
<glyph unicode="&#xe904;" glyph-name="textfield" d="M967.115 255.999v512.001c0 15.691-12.759 28.448-28.448 28.448h-853.334c-15.691 0-28.448-12.759-28.448-28.448v-512.001c0-15.691 12.759-28.448 28.448-28.448h853.334c15.691 0 28.448 12.759 28.448 28.448zM938.667 853.333c47.133 0 85.333-38.2 85.333-85.333v-512.001c0-47.133-38.2-85.333-85.333-85.333h-853.334c-47.133 0-85.333 38.2-85.333 85.333v512.001c0 47.133 38.2 85.333 85.333 85.333h853.334zM298.666 490.667c0-11.779-9.553-21.334-21.334-21.334h-42.667c-11.779 0-21.334 9.553-21.334 21.334v42.667c0 11.779 9.553 21.334 21.334 21.334h42.667c11.779 0 21.334-9.553 21.334-21.334v-42.667zM469.333 490.667c0-11.779-9.553-21.334-21.334-21.334h-42.667c-11.779 0-21.334 9.553-21.334 21.334v42.667c0 11.779 9.553 21.334 21.334 21.334h42.667c11.779 0 21.334-9.553 21.334-21.334v-42.667zM640 490.667c0-11.779-9.553-21.334-21.334-21.334h-42.667c-11.779 0-21.334 9.553-21.334 21.334v42.667c0 11.779 9.553 21.334 21.334 21.334h42.667c11.779 0 21.334-9.553 21.334-21.334v-42.667zM810.667 490.667c0-11.779-9.553-21.334-21.334-21.334h-42.667c-11.779 0-21.334 9.553-21.334 21.334v42.667c0 11.779 9.553 21.334 21.334 21.334h42.667c11.779 0 21.334-9.553 21.334-21.334v-42.667zM213.333 348.448c0-11.779-9.553-21.334-21.334-21.334h-42.667c-11.779 0-21.334 9.553-21.334 21.334v42.667c0 11.779 9.553 21.334 21.334 21.334h42.667c11.779 0 21.334-9.553 21.334-21.334v-42.667zM896 348.448c0-11.779-9.553-21.334-21.334-21.334h-42.667c-11.779 0-21.334 9.553-21.334 21.334v42.667c0 11.779 9.553 21.334 21.334 21.334h42.667c11.779 0 21.334-9.553 21.334-21.334v-42.667zM213.333 632.885c0-11.779-9.553-21.334-21.334-21.334h-42.667c-11.779 0-21.334 9.553-21.334 21.334v42.667c0 11.779 9.553 21.334 21.334 21.334h42.667c11.779 0 21.334-9.553 21.334-21.334v-42.667zM384 632.885c0-11.779-9.553-21.334-21.334-21.334h-42.667c-11.779 0-21.334 9.553-21.334 21.334v42.667c0 11.779 9.553 21.334 21.334 21.334h42.667c11.779 0 21.334-9.553 21.334-21.334v-42.667zM554.667 632.885c0-11.779-9.553-21.334-21.334-21.334h-42.667c-11.779 0-21.334 9.553-21.334 21.334v42.667c0 11.779 9.553 21.334 21.334 21.334h42.667c11.779 0 21.334-9.553 21.334-21.334v-42.667zM725.334 632.885c0-11.779-9.553-21.334-21.334-21.334h-42.667c-11.779 0-21.334 9.553-21.334 21.334v42.667c0 11.779 9.553 21.334 21.334 21.334h42.667c11.779 0 21.334-9.553 21.334-21.334v-42.667zM896 632.885c0-11.779-9.553-21.334-21.334-21.334h-42.667c-11.779 0-21.334 9.553-21.334 21.334v42.667c0 11.779 9.553 21.334 21.334 21.334h42.667c11.779 0 21.334-9.553 21.334-21.334v-42.667zM725.334 362.666c0-11.779-9.553-21.334-21.334-21.334h-384c-11.779 0-21.334 9.553-21.334 21.334v14.218c0 11.779 9.553 21.334 21.334 21.334h384c11.779 0 21.334-9.553 21.334-21.334v-14.218z" />
<glyph unicode="&#xe905;" glyph-name="navigation" d="M1010.282 105.138h-996.564c-7.574 0-13.718 6.145-13.718 13.718v54.861c0 7.574 6.145 13.718 13.718 13.718h996.564c7.574 0 13.718-6.145 13.718-13.718v-54.861c0-7.574-6.145-13.718-13.718-13.718zM1010.282 470.852h-996.564c-7.574 0-13.718 6.145-13.718 13.718v54.861c0 7.574 6.145 13.718 13.718 13.718h996.564c7.574 0 13.718-6.145 13.718-13.718v-54.861c0-7.574-6.145-13.718-13.718-13.718zM1010.282 836.565h-996.564c-7.574 0-13.718 6.145-13.718 13.718v54.861c0 7.574 6.145 13.718 13.718 13.718h996.564c7.574 0 13.718-6.145 13.718-13.718v-54.861c0-7.574-6.145-13.718-13.718-13.718z" />
<glyph unicode="&#xe906;" glyph-name="tabs" d="M387.203 664.001c42.404 0 76.8-34.405 76.8-76.8v-150.402c0-42.404-34.405-76.8-76.8-76.8h-310.403c-42.404 0-76.8 34.405-76.8 76.8v150.402c0 42.404 34.405 76.8 76.8 76.8h310.403zM972.805 436.799v150.402c0 14.079-11.517 25.597-25.597 25.597h-310.403c-14.079 0-25.597-11.517-25.597-25.597v-150.402c0-14.079 11.517-25.597 25.597-25.597h310.403c14.079 0 25.597 11.517 25.597 25.597zM947.2 664.001c42.404 0 76.8-34.405 76.8-76.8v-150.402c0-42.404-34.405-76.8-76.8-76.8h-310.403c-42.404 0-76.8 34.405-76.8 76.8v150.402c0 42.404 34.405 76.8 76.8 76.8h310.403z" />
<glyph unicode="&#xe907;" glyph-name="tooltips" d="M512 809.29c-36.486 0-66.064-29.578-66.064-66.064s29.578-66.064 66.064-66.064c36.486 0 66.064 29.578 66.064 66.064s-29.578 66.064-66.064 66.064zM437.677 313.807h24.774v247.742h-24.774c-13.682 0-24.774 11.092-24.774 24.774v16.517c0 13.682 11.092 24.774 24.774 24.774h99.097c13.682 0 24.774-11.092 24.774-24.774v-289.033h24.774c13.682 0 24.774-11.092 24.774-24.774v-16.517c0-13.682-11.092-24.774-24.774-24.774h-148.644c-13.682 0-24.774 11.092-24.774 24.774v16.517c0 13.682 11.092 24.774 24.774 24.774zM512 1024c-282.75 0-512-229.333-512-512 0-282.832 229.25-512 512-512s512 229.168 512 512c0 282.667-229.25 512-512 512zM512 957.934c244.895 0 445.934-198.349 445.934-445.934 0-246.277-199.453-445.934-445.934-445.934-246.182 0-445.934 199.355-445.934 445.934 0 246.095 199.436 445.934 445.934 445.934z" />
<glyph unicode="&#xe908;" glyph-name="typography" d="M327.494 422.080l175.976 459.979c3.487 8.815 6.309 17.891 8.527 26.118 2.208-8.204 5.019-17.243 8.489-26.015l174.585-460.082h-367.579zM531.978 1024h-39.955c-11.636 0-22.050-7.105-26.129-17.82l-354.983-933.037h-54.57c-15.406 0-27.898-12.281-27.898-27.428v-18.286c0-15.148 12.491-27.428 27.898-27.428h204.581c15.406 0 27.898 12.281 27.898 27.428v18.286c0 15.148-12.491 27.428-27.898 27.428h-65.296l103.804 275.338h423.702l105.186-275.338h-65.241c-15.406 0-27.898-12.281-27.898-27.428v-18.286c0-15.148 12.491-27.428 27.898-27.428h204.581c15.406 0 27.898 12.281 27.898 27.428v18.286c0 15.148-12.491 27.428-27.898 27.428h-54.568l-354.983 933.037c-4.078 10.715-14.491 17.82-26.129 17.82v0z" />
<glyph unicode="&#xe909;" glyph-name="logo-text" horiz-adv-x="2864" d="M160.157 817.826c18.56-26.256 53.328-36.32 85.776-30.896 85.008 20.864 166.912 50.992 254.24 67.984 44.048 24.752 93.504 39.424 139.12 61.824 13.904 11.6 26.256 33.248 18.528 55.648-6.96 20.88-29.36 26.272-44.816 37.088-33.232 4.64-68 8.512-94.272-13.12-18.56-23.184-49.456-30.144-72.64-48.704-10.064-7.712-24.72-6.16-33.248-18.544-54.080-6.944-102-11.584-144.496-46.352-41.744 1.536-71.856-8.512-111.28-12.368-20.864-17.776 7.728-32.464 3.088-52.56zM1456.891 205.84c-3.072 27.824-12.368 54.080-17.008 78.080-10.816 64.096-16.224 146.752-16.224 213.232 1.536 47.888-10.816 106.608-17.008 148.352-13.92 30.912 5.408 61.808-9.28 92.72-6.944 16.224-2.304 37.104-3.856 55.648 6.176 17.776 24.736 17.776 35.552 30.144 40.176 11.584 87.344 26.256 126 1.536 32.464-26.272 84.976-14.688 116.688 3.856 9.28 19.344 24.72 38.656 22.4 61.056-16.24 34.016-59.52 34.016-92.736 42.496h-20.096c-48.688 26.288-95.824-6.944-139.104-20.096-29.376-13.12-68.016-3.072-92.752-27.808-33.232 2.32-57.184-18.544-88.88-18.544-15.456-15.456-39.392-7.728-55.632-20.88-18.544 0-38.624-5.408-57.968-9.264-8.48-17.008-31.696-10.048-42.48-21.632-28.624-10.048-59.536-17.008-88.88-24.72-51.776-17.792-109.744-10.048-163.056-20.112-15.456-3.856-31.68-6.176-43.28-18.528-6.176-29.376 27.824-29.376 39.408-50.256 18.56-29.328 53.312-29.328 79.616-46.336 10.816-9.28 28.576-1.584 37.088-16.256 31.68-13.136 74.928-15.44 109.728-6.176 27.808 18.544 61.056 29.376 83.456 57.968 29.36 6.944 47.136 37.872 71.872 50.208 18.544 3.104 35.536 23.984 54.080 10.848 10.064-4.656 3.872-12.384 5.424-22.432 9.264-16.208 6.176-34.768 1.552-51.76v-14.672c9.248-176.976-6.192-345.408-21.632-523.152-10.064-30.88 9.248-56.368 9.248-83.44 13.92-11.616 19.344-34 40.192-40.976 30.144-10.032 76.512-14.704 100.464 11.6 47.152 20.88 31.712 79.616 47.936 120.576-9.264 19.312 3.84 41.728-10.832 58.72zM1043.437 147.106c-6.192 10.064-20.848 16.224-31.68 23.968-43.28 7.712-80.368 32.432-116.688 57.184-20.88-6.96-28.592 18.544-46.384 20.88-8.48 10.048-24.72 13.12-33.216 21.632-39.424 10.016-64.144 45.552-95.056 63.344-57.184 26.272-96.592 93.456-139.104 137.52-27.808 25.52-63.36 61.040-62.592 105.104 12.368 27.808 45.584 37.088 70.336 50.208 30.912 23.168 74.96 36.336 92.72 72.656 4.624 13.904 6.96 29.36-2.304 42.512-10.048 20.848-35.552 20.080-55.648 27.808-49.456 4.656-85.008-32.464-112.832-61.040-16.992-1.552-35.536-21.648-51.776-3.888-9.28 20.112-16.224 40.208-31.68 57.2-7.712 6.192-20.080 1.536-26.272 11.584-16.992-7.712-35.552-0.752-51.776-5.392-13.904-5.424-26.288-17.776-31.68-31.68 4.624-32.48-16.24-58.752-3.088-88.864 4.624-37.12-31.696-60.304-57.952-76.512-44.064-6.208-69.568-44.816-112.848-53.328-16.992-8.512-37.088-10.064-54.080-17.024-18.56-3.824-51.008 3.104-59.52-20.064 2.336-20.88 13.92-39.44 27.824-54.112 10.048-22.416 39.408-30.128 59.52-44.8 30.144-10.032 60.272 4.624 88.864 2.32 10.8-40.192 7.728-81.872-20.096-111.248-9.264-27.824-23.952-48.688-44.832-67.232 0.784-12.384-16.992-13.904-18.528-25.488-6.192-3.12-11.6-10.064-20.096-7.744-17.792 19.328-40.96 18.56-63.392 14.704-9.264-3.12-18.528-13.92-20.080-23.984-24.72-11.568 0.784-29.36-7.728-47.904 0-11.6 17.776-16.224 11.6-30.128 9.28-26.288 36.32-44.064 62.576-46.384 46.384-25.504 85.024 6.944 128.304 15.472 49.44 41.712 98.144 91.184 124.4 151.456 0.784 15.456 12.368 20.112 13.136 35.552 11.616 12.368 6.976 31.68 18.56 44.8 10.816 19.312 7.728 46.368 16.224 64.912 0 21.648 4.64 45.568 18.56 66.432 34.752-3.088 44.032-34.768 70.32-51.776 6.944-17.744 29.36-23.936 35.536-39.376 53.312-67.2 94.288-140.624 148.384-207.088l84.992-64.912c75.744-15.472 161.52 4.624 238.016 6.96 23.968 13.888 57.952 5.408 79.6 26.256 3.088 10.064 13.136 20.096 9.28 31.696-7.728 10.048-13.904 24.736-27.824 27.808zM1755.203 552.77c-51.008 3.088-112.848 36.32-157.648 0-20.080-56.416 14.672-112.816 59.504-153.776 11.568-7.728 21.664-12.368 22.416-26.256 36.32-13.168 77.28-13.168 116.688-6.976 1.536 20.864 29.376 13.92 31.68 33.232 23.952 57.168-14.688 104.336-50.224 142.944-8.512 0-15.456 6.192-22.416 10.832zM2447.766 371.403l4.384-4.864c2.816-1.152 6.064-1.152 8.816-1.856l141.44 1.168c3.92 1.168 6.72 1.856 9.488 5.552 1.872 0 3.488-0.448 4.88-1.616 31.056-0.928 60.512-0.448 91.808-0.448l3.488-2.8v-45.648c-2.576-5.792 3.248-17.136-5.088-20.16l-74.448-0.432c-3.248-0.48-6.24-1.904-7.872-5.12-1.616-4.64 2.32-6.72 5.104-8.784l119.616-0.496 79.984 0.928 3.952 3.936c2.32 4.192-1.616 7.184-3.952 9.536l-79.52 1.136-2.32 2.768c0.24 22.032-0.448 40.128 0.72 61.648l1.6 2.784c0.688 0.944 2.576 0 3.248 1.152 31.296 1.376 64.432-0.448 94.608 1.616 3.696 0.928 4.4 4.864 3.92 8.336-0.704 2.080-3.008 2.784-4.4 3.968-31.52 2.288-63.536 0.224-96.896 1.6l-1.632 2.304v46.624c-4.4 9.968-16.448 9.024-25.040 7.904-17.632-3.744-7.888-25.536-10.432-37.808-2.304-6.288 2.304-15.536-3.936-19.472l-75.856-0.688c-7.6-1.152-16.416 0.688-22.672-3.728-58.192 0.24-97.856-0.464-155.344-1.856-3.696-0.704-5.568-4.848-7.648-7.184zM2059.75 394.2c-24.56-1.152-51.664 0.256-75.104-1.152-3.712-0.688-4.176-4.656-4.4-7.648 1.6-2.32 2.784-4.416 5.536-5.104l50.096-0.448 124.72 0.896c2.8 0.24 5.568 1.168 6.736 3.952 0.688 3.232 0.912 5.568-1.872 7.872-19.712 3.968-40.576-0.688-61.2 1.632l-3.696 2.784c-0.48 12.752 0.928 26.192-1.152 38.48-4.416 8.368-13.92 6.736-21.824 7.648-22.72-3.008-9.712-29.92-13.184-44.512-0.464-1.84-2.56-4.144-4.656-4.4zM2585.702 411.981l11.6 1.152c4.144 1.6 4.656 6.016 3.472 9.504-0.72 1.824-2.768 2.784-4.4 3.232-27.136 1.168-56.336 0.464-82.528 0.704-14.592-1.408-30.848 3.040-44.992-1.6-2.288-1.408-3.488-4.896-2.8-7.424 1.664-2.096 3.040-4.192 5.584-4.88l114.064-0.688zM2058.157 374.278c-6.304 6.016-17.872 2.992-23.456-1.872-15.76-30.8-27.568-63.488-50.080-91.744l-0.432-5.584c1.84-3.92 6-5.104 9.968-6.016 15.056 6.512 24.56 23.888 34.992 36.608 1.616 3.248 3.968 6.032 7.424 6.736 9.264-7.408 16.208-17.36 25.504-25.056 4.864-1.392 10.176-0.432 13.424 3.968 0 1.632 1.872 3.728 0.96 5.104-3.488 10.64-16.928 20.4-21.584 31.52-12.496 11.808 6.032 22 7.664 33.344 1.152 4.656 0 9.984-4.384 12.992zM2127.688 372.387c-4.4-1.376-9.040-2.976-11.616-7.632-5.536-25.472-16.416-48.88-29.408-71.12-1.168-3.936-0.704-8.352 3.248-10.656 16.896-8.592 18.528 13.664 28.96 19.472 8.352-7.904 15.088-20.624 23.872-27.376 4.624-1.376 9.28 0.496 12.752 2.784 1.376 2.528 3.232 5.12 1.632 7.92-8.592 14.8-17.616 29.168-22.256 45.6 4.416 10.432 14.384 19.264 13.44 31.088-3.696 8.32-12.752 9.264-20.624 9.92zM2595.203 330.387l-120.784 0.464-2.784-0.464c-4.624-0.672-6.48-6.256-5.568-10.192 1.872-2.096 3.968-3.472 6.048-4.384h116.832l6.704 0.672c3.504 0.928 4.912 4.64 5.6 7.648 0 3.472-3.712 4.896-6.048 6.256zM2593.578 283.138c-40.336 0.688-78.336 0.688-117.984 0-3.28-0.72-7.184-0.72-9.040-3.936-1.392-3.488-0.24-7.904 3.456-9.504l118.944-0.496c3.696-0.688 6.96 0.496 9.024 2.784 1.2 1.856 2.336 4.4 1.2 6.496-1.2 2.544-3.52 3.712-5.6 4.656zM1981.859 230.574c21.344-2.096 42.192-0.224 63.52-1.616 1.392-0.704 1.168-2.096 1.168-3.264-16.016-25.968-31.52-47.024-55.184-67.456-3.712-2.784-8.816-5.792-10.432-9.984-0.224-2.064-0.224-5.328 2.096-7.184 13.44-7.184 23.648 6.992 31.76 13.92 1.392 2.080 5.776 2.080 6.016 5.552 12.976 9.536 22.48 23.44 33.376 33.872 0.48 2.544 4.192 2.32 3.968 5.104 4.16 2.304 4.4 10.896 9.472 6.72-4.16-24.592-5.76-48-5.072-72.352l1.136-7.168c1.648-4.624 6.752-7.424 11.152-8.368 8.576-0.672 18.976-0.464 23.408 8.368 0.912 26.88 0.912 49.376-2.32 74.416l1.856 1.136c17.152-13.664 35.904-28.032 54.944-39.376h9.488c3.728 2.304 7.408 6.208 5.12 11.12-20.864 15.056-40.096 27.584-55.648 48.224-0.24 2.304-4.624 5.344-0.688 6.72l55.184 1.168c3.248 1.136 5.792 4.608 5.568 8.32-0.464 3.024-3.968 3.968-6.272 5.104h-58.416c-2.096 0.928-5.12-0.208-6.512 2.096-3.232 12.048 4.416 22.24-4.624 31.776-5.792 6.016-16.24 4.624-23.888 3.216-13.664-5.568-6.256-21.792-8.352-33.376-0.912-1.616-2.784-3.92-4.848-3.712l-74.208-0.704-4.848-2.752c-2.784-3.264-0.224-7.424 2.080-9.52zM2698.141 269.2c-4.64 3.504-10.432 4.192-16.704 3.728-4.624-1.632-10.4-3.472-11.792-8.816-0.48-36.624-1.168-78.128-1.648-114.064l1.168-6.032c3.952-10.656 15.76-14.384 26.192-15.76 34.32 1.376 75.36-6.24 106.176 6.72 12.096 9.28 21.344 23.664 19.024 38.976-4.656 7.168-12.528 9.248-20.656 9.008-5.792-1.392-11.808-3.696-14.352-9.472-3.264-13.712-9.744-27.84-24.576-31.792h-49.632c-3.248 1.392-7.6 2.096-9.248 6.032-1.152 31.76-0.448 60.032-0.72 94.144-1.84 9.488 4.432 20.384-3.232 27.328zM2759.36 191.763c7.168-1.136 14.112 1.648 19.936 6.064 2.992 2.752 2.992 6.928 2.784 11.12-5.584 14.816-15.552 27.136-24.368 39.632-6.48 7.424-12.032 16.464-18.992 21.12-5.808 0.912-13.424 1.152-16.688-4.416-2.336-13.44 11.376-21.808 14.352-34.080 9.296-12.528 2.768-36.416 22.976-39.44zM2833.312 177.856c8.784-1.6 17.376-0.224 23.872 5.6 3.728 3.696 3.728 9.504 2.784 14.352-9.28 13.216-19.936 25.744-30.608 38.48-6.736 5.792-12.064 16.224-20.64 19.952-4.4 1.152-9.504 0.688-13.168-1.6-2.352-2.56-3.76-6.496-2.352-10 8.816-12.992 18.080-24.32 24.56-38.464 4.432-9.744 4.864-22.512 15.552-28.32zM2500.626 223.997c0.688 2.8 3.936 1.856 6 2.8l53.6-0.48 1.6-1.616-0.704-79.728-2.8-2.080-57.248 0.448-1.136 1.136c0.24 25.968-0.256 54.72 0.688 79.52v0zM2467.25 140.077c3.92-5.088 9.712-8.352 15.536-9.952 27.12-3.040 59.344-1.648 88.544-1.168l13.232 4.4c8.56 3.696 11.6 12.528 12.72 20.656 6.272-1.648 12.992-3.728 19.52-2.784 18.512 5.776 15.040 27.584 20.144 42.176 1.856 16.704 7.888 33.168 5.552 50.080-2.544 4.176-7.408 5.088-11.792 6.24-4.208-1.392-10-1.152-11.616-6.72-2.288-21.536-7.904-41.472-16.704-60.032-1.584-2.56-2.992-6.496-5.536-5.12-5.568 22.032 12.256 60.304-21.792 64.032h-67.712c-9.744-0.48-21.776 1.6-30.16-3.968-5.312-3.936-9.936-9.28-11.12-15.536l-1.136-76.256 2.32-6.048zM2226.219 206.685c0.448 1.648 1.824 2.336 3.248 2.784 16.688-0.448 35.904 1.392 50.064-1.6l1.136-1.184c-0.672-20.176 1.648-39.872 0-57.696l-1.136-1.2h-51.008l-1.856 1.2c-0.208 19.936-1.6 39.168-0.448 57.696v0zM2226.667 286.205c1.152 1.648 3.024 1.648 4.624 2.32 16.24-0.464 33.648 1.408 48.928-1.6l-0.688-62.368c-19.008-0.944-32.928-0.944-52.176 0l-1.136 1.616 0.448 60.032zM2227.371 361.293c0.688 6.032 6.976 2.784 10.432 3.936 14.144 0 29.216 0.464 42.416-0.448l1.152-3.952c-0.224-19.472 0.224-40.56-0.688-56.080-17.6-2.8-33.84-1.84-52.16-1.168l-1.152 1.168v56.544zM2237.323 432.013c-1.856 5.536-6.48 9.712-12.256 10.656-8.368 1.152-18.096 1.376-22.752-6.736-10.656-38.944-26.88-75.568-51.216-108.928-1.168-3.264-0.24-6.736 1.616-9.040 3.232-1.856 6.512-3.472 10.672-2.784 11.824 6.016 17.616 19.216 26.656 27.328l0.464-0.704v-140.688c1.872-16.688-1.376-36.832 2.784-53.312 5.328-8.576 15.056-13.2 25.056-13.456 55.84 0.256 111.248-0.448 167.584 0.704l3.264 2.096c2.080 2.336 0.928 5.808-1.184 7.888-17.36 3.952-39.392 1.856-56.544 1.632-5.552-0.256-11.152-0.256-15.776 2.32l-0.912 56.56 2.080 2.8c20.176 3.232 40.576 0.672 61.2 2.288 3.008 0.944 2.768 4.192 3.472 6.72-0.464 2.784-3.472 3.232-5.088 4.88l-55.184 0.688c-2.32 0.704-6.256 0.224-6.48 3.936v58.896c0.912 1.6 2.528 1.872 3.696 2.768l55.184 0.48 5.104 2.32c0.464 2.064 3.488 3.712 1.616 6.032-0.208 2.752-3.472 3.472-5.088 5.072l-57.744 0.464-2.768 2.32c0.224 19.68-1.152 40.080 0.912 58.864l2.32 1.856 66.784 0.928c3.216 1.376 3.68 4.848 5.552 7.424l-4.416 4.848-80.672 1.168-1.632 1.12c9.312 12.32 20.656 24.592 32.256 35.504 4.4 3.936 7.392 9.488 6.016 16.208-4.624 6.736-12.736 8.128-20.64 8.832-15.536-0.704-18.544-18.304-25.968-28.288-6.016-10.88-15.536-20.4-17.856-32.912l-61.888-0.464-0.928 1.12c4.416 15.792 15.296 29.008 22.256 43.824l0.448 6.768z" />
<glyph unicode="&#xe90a;" glyph-name="phrase" d="M867.8 828.2l-167.8 167.8c-18 18-42.4 28.2-67.8 28.2h-408.2c-53-0.2-96-43.2-96-96.2v-832c0-53 43-96 96-96h576c53 0 96 43 96 96v664.2c0 25.4-10.2 50-28.2 68zM822.6 782.8c4.2-4.2 7-9.2 8.4-14.8h-191v191c5.6-1.4 10.6-4.2 14.8-8.4l167.8-167.8zM800 64h-576c-17.6 0-32 14.4-32 32v832c0 17.6 14.4 32 32 32h352v-208c0-26.6 21.4-48 48-48h208v-608c0-17.6-14.4-32-32-32zM704 552v-16c0-13.2-10.8-24-24-24h-336c-13.2 0-24 10.8-24 24v16c0 13.2 10.8 24 24 24h336c13.2 0 24-10.8 24-24zM704 424v-16c0-13.2-10.8-24-24-24h-336c-13.2 0-24 10.8-24 24v16c0 13.2 10.8 24 24 24h336c13.2 0 24-10.8 24-24zM704 296v-16c0-13.2-10.8-24-24-24h-336c-13.2 0-24 10.8-24 24v16c0 13.2 10.8 24 24 24h336c13.2 0 24-10.8 24-24z" />
<glyph unicode="&#xe90b;" glyph-name="eyeoff" horiz-adv-x="1280" d="M1274 53.5l-1228 967c-2.711 2.181-6.196 3.501-9.989 3.501-5.039 0-9.534-2.33-12.467-5.97l-0.024-0.031-20-25.020c-2.186-2.713-3.509-6.201-3.509-9.999 0-5.034 2.324-9.524 5.959-12.457l0.031-0.024 1228-967c2.713-2.187 6.203-3.511 10.001-3.511 5.044 0 9.542 2.334 12.475 5.98l0.024 0.031 20 25.020c2.181 2.711 3.501 6.196 3.501 9.989 0 5.039-2.33 9.534-5.97 12.467l-0.031 0.024zM640 832c141.321-0.159 255.841-114.679 256-255.985v-0.015c0-43.24-11.8-83.38-30.8-119.14l50.9-40c27.2 46.96 43.9 100.86 43.9 159.14 0 73.66-25.82 140.62-67.56 194.66 112.368-57.565 201.692-146.567 258.112-255.378l1.548-3.282c-35.46-67.978-80.811-125.707-134.927-173.785l-0.613-0.535 50.64-39.88c56.94 52.56 105.74 114.52 141.86 185.020 4.387 8.495 6.959 18.542 6.959 29.19s-2.572 20.695-7.129 29.553l0.17-0.363c-108.46 211.62-323.18 354.8-569.060 354.8-0.098 0-0.214 0-0.33 0-94.272 0-183.648-20.957-263.726-58.466l3.816 1.606 91.54-72c45.18 39.82 103.82 64.86 168.7 64.86zM761.72 538.34c3.99 11.755 6.293 25.294 6.293 39.372 0 69.754-56.546 126.3-126.3 126.3-0.602 0-1.204-0.004-1.804-0.013l0.091 0.001c-2 0-3.78-0.48-5.7-0.58 3.61-9.377 5.701-20.225 5.701-31.562 0-11.81-2.269-23.089-6.395-33.427l0.214 0.609zM326.48 636.66c-3.964-18.167-6.315-39.092-6.479-60.537l-0.001-0.123c-0.001-0.363-0.002-0.792-0.002-1.222 0-176.057 142.723-318.78 318.78-318.78 48.533 0 94.532 10.846 135.707 30.245l-1.945-0.824-59.16 46.58c-23.4-7.060-47.7-12-73.36-12-141.325 0.159-255.849 114.677-256.020 255.984v0.016c0 4.88 1.18 9.44 1.44 14.24zM640 192c-214.72 0-410.94 122.62-512 320 34.86 68 82.18 125.44 136.62 173.44l-51.72 40.74c-56.96-52.56-105.74-114.5-141.86-185-4.387-8.495-6.959-18.542-6.959-29.19s2.572-20.695 7.129-29.553l-0.17 0.363c108.38-211.62 323.1-354.8 568.96-354.8 0.095 0 0.208 0 0.321 0 94.275 0 183.654 20.957 263.735 58.466l-3.816-1.606-58.5 46c-63.62-24.54-131.44-38.86-201.74-38.86z" />
<glyph unicode="&#xe90c;" glyph-name="eyeon" horiz-adv-x="1152" d="M576 448c70.692 0 128 57.308 128 128s-57.308 128-128 128v0c-2 0-3.76-0.48-5.7-0.58 3.613-9.645 5.705-20.791 5.705-32.425 0-52.467-42.533-95-95-95-11.634 0-22.78 2.091-33.082 5.919l0.657-0.214c0-2-0.58-3.76-0.58-5.7 0-70.692 57.308-128 128-128v0zM1145.040 541.2c-108.46 211.62-323.18 354.8-569.040 354.8s-460.64-143.28-569.040-354.82c-4.387-8.495-6.959-18.542-6.959-29.19s2.572-20.695 7.129-29.553l-0.17 0.363c108.46-211.62 323.18-354.8 569.040-354.8s460.64 143.28 569.040 354.82c4.387 8.495 6.959 18.542 6.959 29.19s-2.572 20.695-7.129 29.553l0.17-0.363zM576 832c141.385 0 256-114.615 256-256s-114.615-256-256-256c-141.385 0-256 114.615-256 256v0c0.159 141.321 114.679 255.841 255.985 256h0.015zM576 192c-214.72 0-410.92 122.62-512 320 57.931 112.088 147.223 201.090 256.246 257.113l3.314 1.547c-41.74-54.040-67.56-121-67.56-194.66 0-176.731 143.269-320 320-320s320 143.269 320 320v0c0 73.66-25.82 140.62-67.56 194.66 112.336-57.569 201.628-146.571 258.012-255.376l1.548-3.284c-101.060-197.38-297.28-320-512-320z" />
<glyph unicode="&#xe90d;" glyph-name="check-circle" d="M512 1008c-273.934 0-496-222.066-496-496s222.066-496 496-496 496 222.066 496 496-222.066 496-496 496zM512 80c-237.328 0-432 192.11-432 432 0 237.326 192.11 432 432 432 237.328 0 432-192.11 432-432 0-237.326-192.11-432-432-432zM795.26 629.922l-360.96-358.064c-9.41-9.334-24.606-9.274-33.94 0.136l-171.756 173.144c-9.334 9.41-9.274 24.606 0.136 33.94l17.040 16.902c9.41 9.334 24.606 9.274 33.94-0.136l137.952-139.066 326.882 324.26c9.41 9.334 24.606 9.274 33.94-0.136l16.902-17.040c9.336-9.41 9.274-24.606-0.136-33.94z" />
<glyph unicode="&#xe90e;" glyph-name="question-circle" d="M512 344c-30.928 0-56-25.072-56-56s25.072-56 56-56 56 25.072 56 56-25.072 56-56 56zM527.34 392h-32c-13.254 0-24 10.746-24 24v0.762c0 140.686 154.88 127.238 154.88 214.816 0 40.032-35.522 80.422-114.88 80.422-58.288 0-88.53-19.298-118.422-57.384-7.816-9.96-22.108-11.99-32.496-4.752l-26.268 18.3c-11.25 7.838-13.72 23.542-5.29 34.354 42.452 54.454 92.82 89.482 182.476 89.482 104.64 0 194.88-59.502 194.88-160.422 0-134.828-154.88-127.698-154.88-214.816v-0.762c0-13.254-10.746-24-24-24zM512 944c237.242 0 432-192.15 432-432 0-238.582-193.22-432-432-432-238.488 0-432 193.124-432 432 0 238.406 193.204 432 432 432zM512 1008c-273.914 0-496-222.166-496-496 0-273.994 222.086-496 496-496s496 222.006 496 496c0 273.834-222.086 496-496 496z" />
<glyph unicode="&#xe90f;" glyph-name="exclamation-circle" d="M512 944c237.242 0 432-192.15 432-432 0-238.582-193.22-432-432-432-238.488 0-432 193.124-432 432 0 238.406 193.204 432 432 432zM512 1008c-273.914 0-496-222.166-496-496 0-273.994 222.086-496 496-496s496 222.006 496 496c0 273.834-222.086 496-496 496zM489.020 768h45.958c13.646 0 24.548-11.364 23.98-25l-14-336c-0.536-12.856-11.112-23-23.98-23h-17.958c-12.866 0-23.444 10.146-23.98 23l-14 336c-0.566 13.636 10.334 25 23.98 25zM512 344c-30.928 0-56-25.072-56-56s25.072-56 56-56 56 25.072 56 56-25.072 56-56 56z" />
<glyph unicode="&#xe910;" glyph-name="sort" horiz-adv-x="640" d="M82 448h476c42.8 0 64.2-51.8 34-82l-238-238c-18.8-18.8-49.2-18.8-67.8 0l-238.2 238c-30.2 30.2-8.8 82 34 82zM592 658l-238 238c-18.8 18.8-49.2 18.8-67.8 0l-238.2-238c-30.2-30.2-8.8-82 34-82h476c42.8 0 64.2 51.8 34 82z" />
<glyph unicode="&#xe911;" glyph-name="caret-down" horiz-adv-x="640" d="M62.6 640h514.6c35.6 0 53.4-43 28.2-68.2l-257.2-257.4c-15.6-15.6-41-15.6-56.6 0l-257.2 257.4c-25.2 25.2-7.4 68.2 28.2 68.2z" />
<glyph unicode="&#xe912;" glyph-name="caret-up" horiz-adv-x="640" d="M577.324 320h-514.648c-35.636 0-53.482 43.086-28.284 68.284l257.324 257.324c15.62 15.62 40.948 15.62 56.568 0l257.324-257.324c25.2-25.198 7.352-68.284-28.284-68.284z" />
<glyph unicode="&#xe913;" glyph-name="menu" horiz-adv-x="992" d="M529.94 478.060c18.76 18.74 18.76 49.14 0 67.88-18.74 18.74-49.14 18.74-67.88 0-18.76-18.74-18.76-49.14 0-67.88 18.74-18.74 49.14-18.74 67.88 0zM702.88 774c-4.52 0-9.020-0.74-13.42-2.32l-309.8-111.7c-14.98-5.4-26.2-16.62-31.6-31.6l-111.7-309.82c-11.3-31.34 20.66-68.54 52.8-68.54 4.52 0 9.020 0.74 13.42 2.32l309.8 111.7c14.98 5.4 26.2 16.62 31.6 31.6l111.7 309.8c11.28 31.34-20.66 68.56-52.8 68.56zM585.58 422.42l-280.2-101.020 101.020 280.22 280.22 101.020-101.040-280.22zM496 1008c-273.94 0-496-222.060-496-496s222.060-496 496-496 496 222.060 496 496-222.060 496-496 496zM496 80c-238.2 0-432 193.8-432 432s193.8 432 432 432 432-193.8 432-432-193.8-432-432-432z" />
<glyph unicode="&#xe914;" glyph-name="message" d="M560.066 480h-288c-8.8 0-16-7.2-16-16v-32c0-8.8 7.2-16 16-16h288c8.8 0 16 7.2 16 16v32c0 8.8-7.2 16-16 16zM752.066 672h-480c-8.8 0-16-7.2-16-16v-32c0-8.8 7.2-16 16-16h480c8.8 0 16 7.2 16 16v32c0 8.8-7.2 16-16 16zM512.066 960c-282.8 0-512-186.2-512-416 0-95.2 39.8-182.4 105.8-252.6-29.8-78.8-91.8-145.6-92.8-146.4-13.2-14-16.8-34.4-9.2-52s25-29 44.2-29c123 0 220 51.4 278.2 92.6 57.8-18.2 120.2-28.6 185.8-28.6 282.8 0 512 186.2 512 416s-229.2 416-512 416zM512.066 192c-56.6 0-112.6 8.6-166.4 25.6l-30.4 9.6-26-18.4c-46-32.6-117-70.6-205.2-79.2 24 30.2 59.6 80.8 81.6 139.2l14.2 37.4-27.4 29.2c-57.8 61.2-88.4 133.4-88.4 208.6 0 194 201 352 448 352s448-158 448-352-201-352-448-352z" />
<glyph unicode="&#xe915;" glyph-name="selection" d="M500.297 47.123l-83.83 203.73-93.576-105.6c-46.028-51.944-130.892-18.83-130.892 51.746v749.879c0 69.428 82.802 103.35 129.588 53.18l489.507-524.879c45.394-48.67 12.148-130.18-54.39-130.18h-131.42l85.618-208.074c16.298-39.614-2.070-85.022-40.948-101.22l-72-30.002c-38.072-15.856-81.616 2.434-97.656 41.42zM436.616 370.088l122.87-298.614c2.364-5.754 8.234-9.036 13.852-6.694l71.998 30c6.228 2.596 9.208 10.91 6.376 17.792l-121.97 296.428h226.958c10.018 0 15.24 14.32 7.586 22.532l-489.505 524.879c-7.214 7.726-18.784 1.832-18.784-9.532v-749.879c0-11.55 11.87-17.34 18.994-9.3l161.624 182.388z" />
<glyph unicode="&#xe916;" glyph-name="list" d="M0 864v-704c0-53.020 42.98-96 96-96h832c53.020 0 96 42.98 96 96v704c0 53.020-42.98 96-96 96h-832c-53.020 0-96-42.98-96-96zM960 864v-181.334h-576v213.334h544c17.674 0 32-14.326 32-32zM960 405.334h-576v213.332h576v-213.332zM64 618.666h256v-213.334h-256v213.334zM320 896v-213.334h-256v181.334c0 17.674 14.326 32 32 32h224zM64 160v181.334h256v-213.334h-224c-17.674 0-32 14.326-32 32zM384 128v213.334h576v-181.334c0-17.674-14.326-32-32-32h-544z" />
<glyph unicode="&#xe917;" glyph-name="search" d="M1010.88 79.578l-98.696 98.496-130.527 130.628c33.733 41.741 59.158 88.587 75.674 139.336 17.617 54.053 24.524 110.308 20.62 167.263-4.004 56.956-18.718 111.709-43.643 162.759-25.925 52.852-61.66 99.397-106.504 138.335s-95.894 67.966-151.848 86.184c-54.053 17.817-110.308 24.724-167.263 20.72s-111.709-18.718-162.759-43.643c-52.852-25.925-99.397-61.76-138.335-106.504s-67.966-95.894-86.184-151.848c-17.817-54.053-24.724-110.308-20.72-167.263s18.718-111.709 43.643-162.759c25.925-52.852 61.66-99.397 106.504-138.335 79.978-69.568 182.478-107.805 288.482-107.805 100.298 0 197.993 34.534 275.97 97.395l229.124-229.024c8.809-8.909 20.62-13.813 33.232-13.914h0.1c12.512 0 24.624 5.105 33.232 14.014 17.917 18.018 17.917 47.747-0.1 65.964zM784.659 584.271c0-46.646-9.109-91.79-27.126-134.331-17.417-41.14-42.241-78.076-73.972-109.707-31.731-31.731-68.667-56.555-109.707-73.972-42.542-18.018-87.786-27.126-134.331-27.126-46.646 0-91.79 9.209-134.331 27.227-41.14 17.417-77.976 42.341-109.707 73.972-31.731 31.731-56.555 68.667-73.972 109.707-18.018 42.542-27.126 87.686-27.227 134.331 0 46.646 9.109 91.79 27.126 134.331 17.417 41.14 42.241 78.076 73.972 109.707 31.731 31.731 68.667 56.655 109.707 73.972 42.542 18.018 87.786 27.126 134.331 27.126 46.646 0 91.79-9.109 134.331-27.126 41.14-17.417 78.076-42.241 109.707-73.972 31.731-31.731 56.555-68.667 73.972-109.707 18.118-42.642 27.227-87.786 27.227-134.431z" />
<glyph unicode="&#xe918;" glyph-name="user-filled" d="M753.78 780.187c0-134.652-108.251-243.804-241.781-243.804s-241.781 109.152-241.781 243.804c0 134.652 108.251 243.813 241.781 243.813s241.781-109.161 241.781-243.813zM681.35 438.857h-335.846c-126.641 0-268.705-128.195-268.705-255.901v-146.385c0-20.187 16.247-36.571 36.267-36.571h797.867c20.019 0 36.267 16.384 36.267 36.571v146.385c0 127.705-139.208 255.901-265.849 255.901z" />
<glyph unicode="&#xe919;" glyph-name="user-outlined" d="M960.983 0h-897.969v37.809c0 236.308 151.237 305.625 252.062 352.886 28.357 12.603 53.563 25.206 69.317 37.809-81.92 56.714-132.332 160.689-132.332 277.268-3.151 176.443 116.578 318.228 258.363 318.228 144.935 0 261.514-141.785 261.514-318.228 0-116.578-50.412-220.554-132.332-277.268v0c15.754-12.603 40.96-25.206 69.317-37.809 100.825-47.262 252.062-116.578 252.062-352.886v-37.809zM144.934 78.769h737.28c-15.754 154.388-113.428 201.649-204.8 242.609-40.96 18.905-78.769 37.809-100.825 63.015l-9.452 9.452-15.754 78.769 25.206 12.603c69.317 37.809 116.578 122.88 116.578 220.554 0 132.332-81.92 239.458-182.745 239.458s-182.745-107.126-182.745-239.458c0-97.674 47.262-185.895 116.578-220.554l25.206-12.603-12.603-72.468-6.302-6.302c-22.055-31.508-59.865-47.262-107.126-69.317-85.071-44.111-185.895-91.372-198.498-245.76z" />
<glyph unicode="&#xe91a;" glyph-name="facebook" d="M512 1024c-282.77 0-512-229.23-512-512 0-255.55 187.23-467.37 432-505.78v357.78h-130v148h130v112.8c0 128.32 76.44 199.2 193.39 199.2 56 0 114.61-10 114.61-10v-126h-64.56c-63.6 0-83.44-39.47-83.44-80v-96h142l-22.7-148h-119.3v-357.78c244.77 38.41 432 250.23 432 505.78 0 282.77-229.23 512-512 512z" />
<glyph unicode="&#xe91b;" glyph-name="instagram" d="M718.941 1024h-413.882c-168.4-0.199-304.861-136.66-305.059-305.040v-413.901c0.199-168.4 136.66-304.861 305.040-305.059h413.901c168.4 0.199 304.861 136.66 305.059 305.040v413.901c-0.199 168.4-136.66 304.861-305.040 305.059h-0.019zM920.972 305.059c0-111.578-90.452-202.031-202.031-202.031v0h-413.882c-111.578 0-202.031 90.452-202.031 202.031v0 413.882c0 111.578 90.452 202.031 202.031 202.031v0h413.882c111.578 0 202.031-90.452 202.031-202.031v0-413.882zM512 776.844c-146.269 0-264.844-118.575-264.844-264.844s118.575-264.844 264.844-264.844c146.269 0 264.844 118.575 264.844 264.844v0c-0.172 146.2-118.644 264.671-264.827 264.844h-0.017zM512 350.161c-89.381 0-161.839 72.458-161.839 161.839s72.458 161.839 161.839 161.839c89.381 0 161.839-72.458 161.839-161.839v0c0-89.381-72.458-161.839-161.839-161.839v0zM840.82 774.842c0-35.051-28.414-63.465-63.465-63.465s-63.465 28.414-63.465 63.465c0 35.051 28.414 63.465 63.465 63.465s63.465-28.414 63.465-63.465z" />
<glyph unicode="&#xe91c;" glyph-name="line" horiz-adv-x="1067" d="M1066.667 614.4c-12.8 228.267-247.467 409.6-533.333 409.6-294.4 0-533.333-192-533.333-430.933 0-217.6 202.667-398.933 462.933-426.667 17.067-2.133 27.733-17.067 25.6-32 0 0 0 0 0 0l-10.667-102.4c-2.133-14.933 8.533-29.867 25.6-32 6.4 0 10.667 0 17.067 2.133 219.733 108.8 352 219.733 430.933 315.733 14.933 17.067 61.867 83.2 70.4 102.4 21.333 36.267 34.133 76.8 40.533 119.467 2.133 10.667 4.267 21.333 4.267 32 0 12.8 0 27.733 0 42.667zM324.267 450.133h-110.933c-14.933 0-27.733 12.8-27.733 27.733v209.067c0 14.933 12.8 27.733 27.733 27.733s27.733-12.8 27.733-27.733v-181.333h83.2c14.933 0 27.733-12.8 27.733-27.733s-12.8-27.733-27.733-27.733zM430.933 693.333v-221.867c0-12.8-10.667-21.333-21.333-21.333h-12.8c-12.8 0-21.333 10.667-21.333 21.333v221.867c0 12.8 10.667 21.333 21.333 21.333h12.8c10.667 0 21.333-8.533 21.333-21.333v0zM684.8 480c0-14.933-12.8-27.733-27.733-29.867-6.4 0-12.8 2.133-19.2 8.533-2.133 2.133-113.067 147.2-113.067 147.2v-125.867c0-14.933-12.8-27.733-27.733-27.733s-27.733 12.8-27.733 27.733v206.933c0 14.933 10.667 27.733 25.6 29.867 8.533 0 17.067-2.133 21.333-8.533 2.133-2.133 113.067-145.067 113.067-145.067v128c0 14.933 12.8 27.733 27.733 27.733s27.733-12.8 27.733-27.733v-211.2zM859.733 610.133c14.933 0 27.733-12.8 27.733-27.733s-12.8-27.733-27.733-27.733h-83.2v-49.067h83.2c14.933 0 27.733-12.8 27.733-27.733s-12.8-27.733-27.733-27.733h-110.933c-14.933 0-27.733 12.8-27.733 27.733v209.067c0 14.933 12.8 27.733 27.733 27.733h110.933c14.933 0 27.733-12.8 27.733-27.733s-12.8-27.733-27.733-27.733h-83.2v-49.067h83.2z" />
<glyph unicode="&#xe91d;" glyph-name="play" d="M682.057 530.286l-235.886 137.143c-21.943 12.8-38.4 1.829-38.4-21.943l1.829-274.286c0-25.6 18.286-34.743 38.4-21.943l234.057 135.314c12.8 3.657 18.286 18.286 14.629 31.086-1.829 5.486-7.314 10.971-14.629 14.629zM512 0c-281.6 0-512 230.4-512 512s230.4 512 512 512 512-230.4 512-512-230.4-512-512-512zM512 960c-246.857 0-448-201.143-448-448s201.143-448 448-448c246.857 0 448 201.143 448 448s-201.143 448-448 448z" />
<glyph unicode="&#xe91e;" glyph-name="left" horiz-adv-x="560" d="M500.459 10.402c13.868-13.868 34.672-13.868 48.542 0 6.935 4.623 9.247 13.868 9.247 20.803 0 9.247-2.312 16.18-9.247 23.115l-466.925 457.68 466.925 457.68c6.935 6.935 9.247 13.868 9.247 20.803 0 9.247-2.312 16.18-9.247 23.115-13.868 13.868-34.672 13.868-48.542 0l-490.040-478.484c-11.557-11.557-11.557-32.36 0-43.92l490.040-480.795z" />
<glyph unicode="&#xe91f;" glyph-name="right" horiz-adv-x="560" d="M60.036 10.378c-13.838-13.838-34.594-13.838-48.432 0-6.919 4.613-9.225 13.838-9.225 20.756 0 9.225 2.306 16.144 9.225 23.063l465.875 458.956-465.875 454.343c-4.613 6.919-9.225 13.838-9.225 23.063s2.306 16.144 9.225 23.063c13.838 13.838 34.594 13.838 48.432 0l488.937-479.712c11.531-11.531 11.531-32.288 0-43.821l-488.937-479.712z" />
<glyph unicode="&#xe920;" glyph-name="down" horiz-adv-x="896" d="M7.578 704.796l420.461-428.548c10.107-10.107 28.3-10.107 38.408 0l420.461 428.548c12.129 12.129 12.129 30.321 0 42.451-12.129 10.107-28.3 10.107-38.408 0l-400.247-408.333-400.247 408.333c-6.064 6.064-14.15 8.086-20.214 8.086-8.086 0-14.15-2.021-20.214-8.086-10.107-12.129-10.107-30.321 0-42.451z" />
<glyph unicode="&#xe921;" glyph-name="rss" d="M232.099 232.471c24.665-24.42 39.937-58.287 39.937-95.721s-15.272-71.301-39.926-95.71l-0.011-0.011c-24.616-24.551-58.588-39.731-96.105-39.731s-71.489 15.18-96.108 39.734l0.003-0.003c-24.632 24.439-39.88 58.305-39.88 95.732s15.248 71.293 39.872 95.724l0.009 0.009c24.588 24.612 58.568 39.837 96.105 39.837s71.517-15.225 96.104-39.836l0.001-0.001zM232.099 232.471v0zM39.889 40.983v0 0zM0 675.793v-195.491c0.162 0 0.354 0 0.547 0 132.222 0 251.876-53.812 338.257-140.729l0.024-0.025c86.851-86.545 140.591-206.269 140.591-338.545 0-0.231 0-0.461 0-0.691v0.036-0.349h196.329c-0.018 186.547-75.796 355.392-198.243 477.446l-0.018 0.018c-121.965 122.515-290.753 198.33-477.248 198.33-0.084 0-0.168 0-0.252 0h0.013zM0.465 1024v-195.491c456.928-1.111 826.976-371.502 827.532-828.455v-0.054h196.003c0 0.102 0 0.222 0 0.343 0 282.564-114.751 538.326-300.194 723.228l-0.025 0.025c-184.807 185.573-440.524 300.404-723.062 300.404-0.090 0-0.179 0-0.269 0h0.014z" />
<glyph unicode="&#xe922;" glyph-name="up" horiz-adv-x="896" d="M886.924 319.53l-419.751 427.824c-10.090 10.090-28.252 10.090-38.343 0l-419.751-427.824c-12.108-12.108-12.108-30.27 0-42.379 12.108-10.090 28.252-10.090 38.343 0l401.589 407.643 399.571-407.643c6.054-6.054 12.108-8.072 20.18-8.072s14.126 2.018 18.162 8.072c12.108 12.108 12.108 30.27 0 42.379z" />
<glyph unicode="&#xe923;" glyph-name="bookmark-outlined" horiz-adv-x="768" d="M672 1024h-576c-53.020 0-96-42.98-96-96v-928l384 224 384-224v928c0 53.020-42.98 96-96 96zM704 111.426l-320 186.666-320-186.666v816.574c0 17.644 14.356 32 32 32h576c17.644 0 32-14.356 32-32v-816.574z" />
<glyph unicode="&#xe924;" glyph-name="share" d="M40.5 45.3c-1.9 0-3.7 0.2-5.6 0.5-12.5 2.2-22.5 11.6-25.5 23.9-0.6 2.5-15 62.7-7 152.1 4.7 52.1 16 103.8 33.6 153.5 22 61.9 53.9 121 94.8 175.7 28.7 41.2 65.9 76.9 110.8 105.9 36.5 23.7 78.2 43.1 123.9 57.7 89.6 28.7 163.4 29.6 171.5 29.6h9.1l0.5 202.5c0 12.8 7.7 24.4 19.6 29.4 11.8 5 25.5 2.4 34.7-6.5l413.4-401.5c6.2-6 9.7-14.3 9.7-23s-3.5-16.9-9.7-23l-415.3-403.1c-9.2-9-22.9-11.5-34.8-6.5-11.8 5-19.5 16.7-19.5 29.5l0.5 211.6c-29.5 3.1-81.7 3.6-146.6-16.8-53.6-16.9-106.1-45.1-156.2-83.8-62.4-48.3-121.4-113.5-175.3-193.5-6-9-16.1-14.2-26.6-14.2zM537 680.3c-2.8 0-70.2-0.3-152-26.5-40.3-12.9-76.9-29.9-108.6-50.5-38-24.6-69.4-54.6-93.3-89.2-0.2-0.3-0.5-0.7-0.7-1-100.9-134.5-119-268-118.3-349.3 43.8 55.2 90.4 102 139.2 139.8 56.1 43.4 115.3 75.1 176.1 94.2 105.8 33.4 183.9 19.2 205.4 14 14.4-3.5 24.6-16.4 24.5-31.2l-0.4-162.9 337.1 327.4-335.5 326.1-0.4-159c0-17.6-14.4-31.9-32-31.9h-41.1z" />
<glyph unicode="&#xe925;" glyph-name="mail" d="M993.2 903.5h-962.4c-17.7 0-32-14.3-32-32v-720.6c0-17.7 14.3-32 32-32h962.4c17.7 0 32 14.3 32 32v720.6c0 17.7-14.3 32-32 32zM512.1 435.4l-97.9 97.9c0 0 0 0 0 0s0 0 0 0l-306.2 306.2h808l-403.9-404.1zM346.3 510.8l-283.5-282.7v566.1l283.5-283.4zM391.5 465.5l97.9-97.9c6-6 14.1-9.4 22.6-9.4s16.6 3.4 22.6 9.4l97.8 97.9 283.4-282.5h-807.7l283.4 282.5zM677.8 510.7l283.4 283.5v-566.2l-283.4 282.7z" />
<glyph unicode="&#xe926;" glyph-name="edit" horiz-adv-x="1022" d="M795.247 455.51c-17.665 0-31.938-14.272-31.938-31.938v-358.799h-684.763v690.451h172.962c17.665 0 31.938 14.272 31.938 31.938v173.062h479.863v-63.376c0-17.665 14.272-31.938 31.938-31.938s31.938 14.272 31.938 31.938v95.314c0 17.665-14.272 31.938-31.938 31.938h-543.738c-0.499 0-1.098 0-1.597 0s-0.898-0.1-1.397-0.1c-0.1 0-0.1 0-0.2 0-5.29-0.499-10.28-2.395-14.472-5.19 0 0 0 0 0 0-0.399-0.299-0.798-0.499-1.098-0.798-0.1 0-0.1-0.1-0.2-0.1-0.299-0.2-0.699-0.499-0.998-0.798-0.1-0.1-0.2-0.1-0.299-0.2-0.299-0.2-0.599-0.499-0.898-0.798-0.1-0.1-0.2-0.2-0.299-0.299-0.399-0.299-0.699-0.699-1.098-0.998 0 0 0 0 0 0l-204.9-205c-0.399-0.399-0.699-0.798-1.098-1.098-0.1-0.1-0.1-0.1-0.2-0.2-0.299-0.299-0.599-0.599-0.798-0.998-0.1-0.1-0.1-0.1-0.2-0.2-0.299-0.299-0.499-0.699-0.798-0.998 0 0-0.1-0.1-0.1-0.1-0.299-0.399-0.599-0.798-0.798-1.198 0 0 0 0 0 0-2.795-4.292-4.691-9.182-5.19-14.572 0-0.1 0-0.1 0-0.2 0-0.499-0.1-0.898-0.1-1.397s0-1.098 0-1.597v-754.327c0-17.665 14.272-31.938 31.938-31.938h748.738c17.665 0 31.938 14.272 31.938 31.938v390.637c-0.2 17.665-14.472 31.938-32.137 31.938zM219.571 915.013v-95.913h-95.913l95.913 95.913zM988.27 831.975l-24.851 24.253c-17.366 16.967-40.321 26.349-64.574 26.349-0.1 0-0.299 0-0.399 0-24.452-0.1-47.407-9.581-64.773-26.848l-230.55-228.753c-2.695 0.699-5.489 1.098-8.284 1.098h-382.553c-17.665 0-31.938-14.272-31.938-31.938s14.272-31.938 31.938-31.938h327.56l-134.936-133.938h-192.624c-17.665 0-31.938-14.272-31.938-31.938s14.272-31.938 31.938-31.938h134.338v0.2l-37.527-134.038h-96.811c-17.665 0-31.938-14.272-31.938-31.938s14.272-31.938 31.938-31.938h105.494c4.491-2.296 9.581-3.593 14.671-3.593 3.393 0 6.787 0.499 10.080 1.597l157.991 52.597c0 0 0 0 0 0 0.499 0.2 0.998 0.299 1.497 0.499 0 0 0 0 0 0 0.499 0.2 0.998 0.399 1.397 0.599 0 0 0 0 0.1 0 0.399 0.2 0.798 0.399 1.297 0.599 0.1 0 0.1 0.1 0.2 0.1 0.299 0.2 0.599 0.299 0.998 0.499 0.2 0.1 0.299 0.2 0.499 0.299s0.399 0.2 0.599 0.399c0.299 0.2 0.499 0.299 0.798 0.499 0.1 0.1 0.2 0.1 0.299 0.2 1.697 1.198 3.294 2.495 4.791 3.892l475.97 473.176c17.665 17.566 27.446 41.020 27.247 65.971-0.2 25.151-10.080 48.505-27.945 65.971zM315.584 169.768c0.1-0.1 0.2-0.1 0.299-0.2-0.1 0.1-0.2 0.2-0.299 0.2zM311.891 172.463c0.1-0.1 0.299-0.2 0.399-0.299-0.2 0.1-0.299 0.2-0.399 0.299zM313.887 170.966c0 0 0 0 0 0s0 0 0 0zM379.259 246.319l14.472 51.699 36.229-34.732-50.701-16.967zM489.943 294.225l-66.869 64.075 383.85 380.856 66.47-63.676-383.451-381.255zM943.757 745.544l-25.051-24.951-66.37 63.676 26.349 26.149c10.979 10.979 29.043 10.979 40.122 0.2l24.851-24.253c5.489-5.389 8.583-12.675 8.583-20.36s-2.994-15.071-8.483-20.46z" />
<glyph unicode="&#xe927;" glyph-name="caret-right" horiz-adv-x="384" d="M0 254.676v514.648c0 35.636 43.086 53.482 68.284 28.284l257.324-257.324c15.62-15.62 15.62-40.948 0-56.568l-257.324-257.324c-25.198-25.2-68.284-7.352-68.284 28.284z" />
<glyph unicode="&#xe928;" glyph-name="caret-left" horiz-adv-x="384" d="M384 769.324v-514.648c0-35.636-43.086-53.482-68.284-28.284l-257.324 257.324c-15.62 15.62-15.62 40.948 0 56.568l257.324 257.324c25.198 25.2 68.284 7.352 68.284-28.284z" />
<glyph unicode="&#xe929;" glyph-name="check" d="M891.010 840.098l-560.030-560.030-197.99 197.99c-9.372 9.372-24.568 9.372-33.942 0l-22.626-22.626c-9.372-9.372-9.372-24.568 0-33.942l237.588-237.588c9.372-9.372 24.568-9.372 33.942 0l599.626 599.626c9.372 9.372 9.372 24.568 0 33.942l-22.628 22.628c-9.372 9.372-24.568 9.372-33.94 0z" />
<glyph unicode="&#xe92a;" glyph-name="check-solid" d="M1008 512c0-273.935-222.065-496-496-496s-496 222.065-496 496 222.065 496 496 496 496-222.065 496-496zM454.627 249.372l368.001 368.001c12.495 12.495 12.495 32.759 0 45.254l-45.254 45.254c-12.495 12.497-32.759 12.497-45.256 0l-300.117-300.115-140.118 140.118c-12.495 12.495-32.759 12.495-45.256 0l-45.254-45.254c-12.495-12.495-12.495-32.759 0-45.254l208-208c12.497-12.497 32.759-12.497 45.256-0.002z" />
<glyph unicode="&#xe92b;" glyph-name="copy" d="M931.882 892.118l-103.764 103.764c-17.373 17.373-41.372 28.118-67.882 28.118h-344.236c-53.020 0-96-42.98-96-96v-96h-160c-53.020 0-96-42.98-96-96v-640c0-53.020 42.98-96 96-96h448c53.020 0 96 42.98 96 96v96h160c53.020 0 96 42.98 96 96v536.236c0 26.51-10.745 50.509-28.118 67.882v0zM768 959.018c5.851-1.475 10.883-4.406 14.862-8.39v0l103.764-103.766c3.983-3.98 6.915-9.011 8.343-14.642l0.047-0.22h-127.016v127.018zM640 96c0-17.644-14.356-32-32-32h-448c-17.644 0-32 14.356-32 32v640c0 17.644 14.356 32 32 32h160v-480c0-53.020 42.98-96 96-96h224v-96zM896 288c0-17.644-14.356-32-32-32h-448c-17.644 0-32 14.356-32 32v640c0 17.644 14.356 32 32 32h288v-144c0-26.4 21.6-48 48-48h144v-480z" />
<glyph unicode="&#xe92c;" glyph-name="quote-left" d="M442.857 97.142v414.858h-276.572c0 152.498 124.072 276.572 276.572 276.572v138.286c-228.768 0-414.858-186.090-414.858-414.858v-414.858zM996.001 512h-276.572c0 152.498 124.072 276.572 276.572 276.572v138.286c-228.768 0-414.858-186.090-414.858-414.858v-414.858h414.858z" />
<glyph unicode="&#xe92d;" glyph-name="quote-right" d="M581.143 926.858v-414.858h276.572c0-152.498-124.072-276.572-276.572-276.572v-138.286c228.768 0 414.858 186.090 414.858 414.858v414.858zM27.999 512h276.572c0-152.498-124.072-276.572-276.572-276.572v-138.286c228.768 0 414.858 186.090 414.858 414.858v414.858h-414.858z" />
<glyph unicode="&#xe92e;" glyph-name="cancel" d="M557.3 512l457.4 457.4c12.5 12.5 12.5 32.8 0 45.3s-32.8 12.5-45.3 0l-457.4-457.4-457.4 457.3c-12.5 12.5-32.7 12.5-45.2 0s-12.5-32.8 0-45.3l457.3-457.3-457.3-457.4c-12.5-12.5-12.5-32.8 0-45.3 6.2-6.2 14.4-9.4 22.6-9.4s16.4 3.1 22.6 9.4l457.4 457.4 457.4-457.4c6.2-6.2 14.4-9.4 22.6-9.4s16.4 3.1 22.6 9.4c12.5 12.5 12.5 32.8 0 45.3l-457.3 457.4z" />
<glyph unicode="&#xe92f;" glyph-name="coin" d="M983.8 711.3c-25.8 61-62.8 115.7-109.8 162.7s-101.7 84-162.7 109.8c-63.1 26.7-130.2 40.2-199.3 40.2s-136.2-13.5-199.3-40.2c-61-25.8-115.7-62.8-162.7-109.8s-84-101.7-109.8-162.7c-26.7-63.1-40.2-130.2-40.2-199.3s13.5-136.2 40.2-199.3c25.8-61 62.8-115.7 109.8-162.7s101.8-83.9 162.7-109.7c63.1-26.7 130.2-40.2 199.3-40.2s136.2 13.5 199.3 40.2c61 25.7 115.7 62.7 162.7 109.7s83.9 101.8 109.7 162.7c26.7 63.1 40.2 130.2 40.2 199.3s-13.4 136.2-40.1 199.3zM924.8 337.6c-22.6-53.3-54.9-101.3-96-142.4-41.2-41.2-89.1-73.5-142.4-96-55.2-23.4-113.9-35.2-174.4-35.2s-119.2 11.8-174.4 35.2c-53.3 22.6-101.3 54.9-142.4 96-41.2 41.2-73.5 89.1-96 142.4-23.4 55.2-35.2 113.9-35.2 174.4s11.8 119.2 35.2 174.4c22.6 53.3 54.9 101.3 96 142.4 41.2 41.2 89.1 73.5 142.4 96 55.2 23.4 113.9 35.2 174.4 35.2s119.2-11.8 174.4-35.2c53.3-22.6 101.3-54.9 142.4-96 41.2-41.2 73.5-89.1 96-142.4 23.4-55.2 35.2-113.9 35.2-174.4s-11.8-119.2-35.2-174.4zM543.2 543.1h-62.4c0 0 0 0-0.1 0-16.7 0-32.3 6.5-44.1 18.3s-18.3 27.5-18.3 44.1c0 16.7 6.5 32.4 18.3 44.2s27.5 18.3 44.1 18.3h124.8c0 0 0 0 0 0 17.1 0 31.1 13.9 31.1 31.1 0 8.3-3.2 16.1-9.1 22s-13.7 9.1-22.1 9.1h-62.5v62.5c0 17.2-14 31.1-31.1 31.1-17.2 0-31.1-14-31.1-31.1v-62.5h-0.1c-68.8 0-124.7-55.9-124.7-124.7s56.1-124.6 124.9-124.6h62.4c16.7 0 32.4-6.5 44.1-18.3 11.8-11.8 18.3-27.5 18.3-44.2 0-34.4-28-62.4-62.4-62.4h-124.8c-17.2 0-31.1-14-31.1-31.2 0-17.1 14-31.1 31.1-31.1h62.5v-62.5c0-17.2 14-31.1 31.1-31.1 17.2 0 31.1 14 31.1 31.1v62.5h0.1c68.8 0 124.7 55.9 124.7 124.7s-55.9 124.7-124.7 124.7z" />
<glyph unicode="&#xe930;" glyph-name="fontsize" horiz-adv-x="1394" d="M-0.003 64.668l346.768 894.663h124.836l367.574-894.663h-131.772l-104.030 270.479h-374.509l-97.095-270.479h-131.772zM263.54 432.242h298.221l-90.16 242.738c-27.741 76.289-48.548 138.708-62.419 187.255-13.871-55.483-27.741-117.901-48.548-173.384l-97.095-256.609zM839.176 64.668l228.867 596.442h83.224l242.738-596.442h-90.16l-69.354 180.319h-249.673l-62.419-180.319h-83.224zM1012.56 307.406h201.125l-62.419 166.449c-20.806 48.548-34.676 90.16-41.612 124.836-6.935-41.612-20.806-76.289-34.676-110.966l-62.419-180.319z" />
<glyph unicode="&#xe931;" glyph-name="logo" d="M85.070 684.521c10.403-14.718 29.891-20.359 48.079-17.317 47.649 11.696 93.557 28.582 142.507 38.105 24.689 13.874 52.411 22.098 77.979 34.653 7.793 6.501 14.718 18.636 10.386 31.193-3.901 11.704-16.457 14.726-25.12 20.789-18.626 2.601-38.114 4.771-52.841-7.355-10.403-12.995-27.72-16.895-40.716-27.3-5.641-4.323-13.856-3.453-18.636-10.394-30.312-3.891-57.172-6.492-80.993-25.981-23.398 0.861-40.277-4.771-62.375-6.934-11.696-9.964 4.333-18.196 1.731-29.461zM811.914 341.49c-1.722 15.595-6.934 30.312-9.532 43.766-6.063 35.926-9.094 82.257-9.094 119.52 0.861 26.843-6.063 59.755-9.532 83.153-7.801 17.328 3.031 34.645-5.202 51.972-3.891 9.094-1.291 20.798-2.161 31.193 3.462 9.964 13.865 9.964 19.927 16.895 22.519 6.492 48.958 14.718 70.626 0.861 18.196-14.726 47.631-8.234 65.406 2.161 5.202 10.843 13.856 21.667 12.556 34.223-9.102 19.067-33.363 19.067-51.98 23.82h-11.265c-27.29 14.735-53.711-3.891-77.971-11.265-16.466-7.355-38.125-1.722-51.988-15.587-18.626 1.3-32.052-10.394-49.818-10.394-8.664-8.664-22.079-4.333-31.183-11.704-10.394 0-21.649-3.031-32.492-5.192-4.753-9.532-17.766-5.632-23.812-12.125-16.044-5.632-33.371-9.532-49.818-13.856-29.021-9.973-61.513-5.632-91.395-11.273-8.664-2.161-17.758-3.462-24.259-10.386-3.462-16.466 15.595-16.466 22.089-28.168 10.403-16.438 29.882-16.438 44.625-25.972 6.063-5.202 16.016-0.887 20.789-9.113 17.758-7.363 42-8.654 61.505-3.462 15.587 10.394 34.223 16.466 46.778 32.492 16.457 3.891 26.421 21.228 40.286 28.142 10.394 1.74 19.919 13.444 30.312 6.081 5.641-2.61 2.171-6.941 3.040-12.575 5.192-9.085 3.462-19.488 0.87-29.013v-8.224c5.184-99.198-3.47-193.608-12.125-293.236-5.641-17.309 5.184-31.594 5.184-46.77 7.801-6.511 10.843-19.058 22.527-22.969 16.895-5.624 42.887-8.242 56.313 6.501 26.43 11.704 17.774 44.625 26.869 67.586-5.192 10.825 2.152 23.39-6.071 32.914zM580.165 308.57c-3.47 5.641-11.687 9.094-17.758 13.434-24.259 4.323-45.048 18.179-65.406 32.052-11.704-3.901-16.027 10.394-25.999 11.704-4.753 5.632-13.856 7.355-18.618 12.125-22.098 5.613-35.953 25.532-53.281 35.505-32.052 14.726-54.142 52.384-77.971 77.083-15.587 14.304-35.515 34.214-35.084 58.912 6.934 15.587 25.551 20.789 39.426 28.142 17.328 12.985 42.017 20.368 51.972 40.724 2.593 7.793 3.901 16.457-1.291 23.829-5.632 11.687-19.927 11.254-31.193 15.587-27.72 2.61-47.649-18.196-63.244-34.214-9.524-0.87-19.919-12.133-29.021-2.179-5.202 11.273-9.094 22.537-17.758 32.062-4.323 3.47-11.254 0.861-14.726 6.492-9.524-4.323-19.927-0.422-29.021-3.023-7.793-3.040-14.735-9.964-17.758-17.758 2.593-18.207-9.102-32.931-1.731-49.809 2.593-20.807-17.766-33.802-32.484-42.887-24.699-3.48-38.993-25.12-63.255-29.891-9.524-4.771-20.789-5.641-30.312-9.543-10.403-2.144-28.591 1.74-33.363-11.246 1.308-11.704 7.801-22.107 15.595-30.331 5.632-12.565 22.089-16.886 33.363-25.11 16.895-5.624 33.784 2.593 49.809 1.3 6.054-22.527 4.333-45.891-11.265-62.356-5.192-15.595-13.426-27.29-25.129-37.685 0.439-6.941-9.524-7.793-10.386-14.286-3.47-1.75-6.501-5.641-11.265-4.341-9.973 10.833-22.958 10.403-35.532 8.242-5.192-1.75-10.386-7.801-11.254-13.444-13.856-6.484 0.439-16.457-4.333-26.851 0-6.501 9.964-9.094 6.501-16.886 5.202-14.735 20.359-24.699 35.074-25.999 25.999-14.297 47.657 3.891 71.916 8.672 27.711 23.38 55.013 51.109 69.729 84.894 0.439 8.664 6.934 11.273 7.363 19.927 6.511 6.934 3.91 17.758 10.403 25.11 6.063 10.825 4.333 25.99 9.094 36.383 0 12.133 2.601 25.542 10.403 37.235 19.479-1.731 24.681-19.488 39.416-29.021 3.891-9.946 16.457-13.417 19.919-22.070 29.882-37.668 52.849-78.822 83.172-116.076l47.64-36.383c42.456-8.672 90.535 2.593 133.412 3.901 13.434 7.785 32.484 3.031 44.618 14.718 1.731 5.641 7.363 11.265 5.202 17.766-4.333 5.632-7.793 13.865-15.595 15.587zM979.124 535.952c-28.591 1.731-63.255 20.359-88.365 0-11.254-31.622 8.224-63.236 33.352-86.195 6.484-4.333 12.144-6.934 12.565-14.718 20.359-7.381 43.317-7.381 65.406-3.91 0.861 11.696 16.466 7.801 17.758 18.626 13.426 32.044-8.234 58.482-28.153 80.123-4.771 0-8.664 3.47-12.565 6.071z" />
<glyph unicode="&#xe932;" glyph-name="bookmark-filled" horiz-adv-x="768" d="M0 0v928c0 53.020 42.98 96 96 96h576c53.020 0 96-42.98 96-96v-928l-384 224-384-224z" />
<glyph unicode="&#xe933;" glyph-name="arrow-right" d="M547 951l-14.2-14.2c-9.4-9.4-9.4-24.6 0-34l357-356.8h-851.8c-13.2 0-24-10.8-24-24v-20c0-13.2 10.8-24 24-24h851.8l-357-357c-9.4-9.4-9.4-24.6 0-34l14.2-14.2c9.4-9.4 24.6-9.4 34 0l422.2 422.2c9.4 9.4 9.4 24.6 0 34l-422.2 422c-9.6 9.4-24.6 9.4-34 0z" />
<glyph unicode="&#xe934;" glyph-name="arrow-left" d="M477 951l14.2-14.2c9.4-9.4 9.4-24.6 0-34l-357-356.8h851.8c13.2 0 24-10.8 24-24v-20c0-13.2-10.8-24-24-24h-851.8l357-357c9.4-9.4 9.4-24.6 0-34l-14.2-14.2c-9.4-9.4-24.6-9.4-34 0l-422.2 422.2c-9.4 9.4-9.4 24.6 0 34l422.2 422c9.6 9.4 24.6 9.4 34 0z" />
<glyph unicode="&#xe935;" glyph-name="error-solid" d="M512 1008c-274 0-496-222-496-496s222-496 496-496 496 222 496 496-222 496-496 496zM755.2 381.8c9.4-9.4 9.4-24.6 0-34l-79.2-79c-9.4-9.4-24.6-9.4-34 0l-130 131.2-130.2-131.2c-9.4-9.4-24.6-9.4-34 0l-79 79.2c-9.4 9.4-9.4 24.6 0 34l131.2 130-131.2 130.2c-9.4 9.4-9.4 24.6 0 34l79.2 79.2c9.4 9.4 24.6 9.4 34 0l130-131.4 130.2 131.2c9.4 9.4 24.6 9.4 34 0l79.2-79.2c9.4-9.4 9.4-24.6 0-34l-131.4-130 131.2-130.2z" />
<glyph unicode="&#xe936;" glyph-name="lock" horiz-adv-x="784" d="M742 607.2h-120v191.8c0 124-100.8 225-225 225h-10.2c-124 0-224.8-101-224.8-225v-191.8h-120c-17.6 0-32-14.4-32-32v-543.2c0-17.6 14.4-32 32-32h700c17.6 0 32 14.4 32 32v543.2c0 17.6-14.4 32-32 32zM226 799c0 88.8 72.2 161 161 161h10.2c88.8 0 161-72.2 161-161v-191.8h-332.2v191.8zM710 64h-636v479.2h636v-479.2zM392 397.2c-17.6 0-32-14.4-32-32v-123.2c0-17.6 14.4-32 32-32s32 14.4 32 32v123.2c0 17.8-14.4 32-32 32z" />
<glyph unicode="&#xe937;" glyph-name="download" d="M489.36 194.48c0.74-0.74 1.54-1.46 2.36-2.14l1.1-0.82c0.46-0.34 0.92-0.72 1.42-1.040s0.92-0.56 1.38-0.84l1.3-0.76c0.48-0.26 0.96-0.48 1.46-0.7s0.9-0.46 1.38-0.64 0.96-0.36 1.44-0.54l1.5-0.52c0.5-0.16 0.98-0.26 1.46-0.38s1.060-0.28 1.58-0.38 1.14-0.18 1.7-0.26 0.92-0.16 1.4-0.2c1.060-0.1 2.1-0.16 3.16-0.16s2.1 0 3.16 0.16c0.48 0 0.94 0.14 1.42 0.2s1.12 0.14 1.66 0.26 1.080 0.26 1.62 0.38l1.42 0.38c0.54 0.16 1.040 0.36 1.56 0.54l1.4 0.5 1.44 0.68c0.46 0.22 0.94 0.42 1.4 0.68s0.9 0.52 1.34 0.8 0.9 0.5 1.34 0.8 0.98 0.72 1.48 1.080 0.7 0.5 1.040 0.78c0.82 0.68 1.6 1.38 2.36 2.14l254.14 254.14c5.792 5.792 9.374 13.792 9.374 22.63 0 17.675-14.329 32.004-32.004 32.004-8.838 0-16.838-3.582-22.63-9.374l-199.52-199.54v697.66c0 17.673-14.327 32-32 32s-32-14.327-32-32v0-697.66l-199.52 199.54c-5.792 5.792-13.792 9.374-22.63 9.374-17.675 0-32.004-14.329-32.004-32.004 0-8.838 3.582-16.838 9.374-22.63v0zM976.16 358.34c-17.673 0-32-14.327-32-32v0-262.34h-864.32v262.34c0 17.673-14.327 32-32 32s-32-14.327-32-32v0-294.34c0-17.673 14.327-32 32-32v0h928.32c17.673 0 32 14.327 32 32v0 294.34c0 17.673-14.327 32-32 32v0z" />
<glyph unicode="&#xe938;" glyph-name="minus" horiz-adv-x="768" d="M752 560h-736c-8.84 0-16-7.16-16-16v-64c0-8.84 7.16-16 16-16h736c8.84 0 16 7.16 16 16v64c0 8.84-7.16 16-16 16z" />
<glyph unicode="&#xe939;" glyph-name="plus" horiz-adv-x="768" d="M752 560h-320v320c0 8.84-7.16 16-16 16h-64c-8.84 0-16-7.16-16-16v-320h-320c-8.84 0-16-7.16-16-16v-64c0-8.84 7.16-16 16-16h320v-320c0-8.84 7.16-16 16-16h64c8.84 0 16 7.16 16 16v320h320c8.84 0 16 7.16 16 16v64c0 8.84-7.16 16-16 16z" />
<glyph unicode="&#xe93a;" glyph-name="exclamation-solid" d="M1008 512c0-273.994-222.086-496-496-496s-496 222.006-496 496c0 273.834 222.086 496 496 496s496-222.166 496-496zM512 412c-50.81 0-92-41.19-92-92s41.19-92 92-92 92 41.19 92 92-41.19 92-92 92zM424.654 742.692l14.836-272c0.694-12.728 11.218-22.692 23.964-22.692h97.092c12.746 0 23.27 9.964 23.964 22.692l14.836 272c0.75 13.748-10.196 25.308-23.964 25.308h-126.766c-13.768 0-24.712-11.56-23.962-25.308z" />
<glyph unicode="&#xe93b;" glyph-name="internet" d="M885.68 861.5c-0.44 0.5-0.88 0.98-1.36 1.44-89.106 94.951-213.796 155.596-352.672 160.555l-0.888 0.025h-1.3l-9.2 0.24c-2.6 0.14-5.32 0.24-8.26 0.24s-5.58 0-8.24-0.18l-9.2-0.24h-1.28c-139.643-5.021-264.221-65.602-353.029-160.17l-0.251-0.27c-0.6-0.58-1.18-1.2-1.72-1.82-85.593-91.093-138.18-214.067-138.18-349.324 0-129.599 48.28-247.922 127.835-337.964l-0.475 0.547 0.26-0.36c1.238-1.642 2.55-3.094 3.979-4.421l0.021-0.019c89.871-99.837 217.779-163.915 360.708-169.272l0.932-0.028h1.32l10.46-0.28c2.34 0 4.66-0.12 7-0.12 3 0 5.78 0.1 8.24 0.18l9.2 0.24h1.24c143.914 5.384 271.867 69.495 361.35 168.917l0.41 0.463c1.035 0.961 1.99 1.966 2.878 3.028l0.042 0.052 1.18 1.5c79.14 89.521 127.458 207.897 127.458 337.558 0 135.337-52.641 258.379-138.566 349.768l0.247-0.266zM862.98 234.12c-33.555 22.956-71.926 43.715-112.422 60.36l-4.178 1.52c20.531 54.305 33.879 117.096 37.103 182.549l0.057 1.451h175.3c-6.972-93.915-41.965-178.517-96.548-246.771l0.688 0.891zM160.98 234.12c-53.884 67.365-88.865 151.969-95.732 244.4l-0.088 1.48h175.3c3.281-66.903 16.629-129.694 38.568-188.289l-1.408 4.289c-44.675-18.165-83.046-38.924-118.771-63.277l2.171 1.397zM171.7 802.88c32.278-21.131 69.348-40.401 108.337-55.875l4.243-1.485c-24.475-59.351-40.244-128.106-43.764-200.080l-0.056-1.44h-175.32c7.298 99.75 46.397 189.181 107.082 259.45l-0.482-0.57zM544 922.5c41.596-39.621 77.068-85.15 105.193-135.351l1.487-2.889c-31.226-8.232-67.708-14.032-105.167-16.19l-1.513-0.070zM480 768c-38.951 2.187-75.439 7.961-110.598 17.038l3.918-0.858c29.607 53.122 65.080 98.677 106.449 138.101l0.231 0.219zM480 704v-160h-175.46c3.632 66.23 18.25 128.078 42.065 185.129l-1.365-3.689c39.691-11.29 85.775-18.959 133.245-21.378l1.515-0.062zM544 704c48.985 2.481 95.069 10.15 139.197 22.5l-4.437-1.060c22.45-53.363 37.068-115.211 40.637-180.005l0.063-1.435h-175.46zM712.82 803.78c-29.588 55.766-64.644 103.74-105.533 146.040l0.173-0.18c77.048-17.068 144.157-52.109 199.169-100.562l-0.489 0.422c-26.575-16.543-57.313-31.915-89.486-44.41l-3.834-1.31zM311.16 803.78c-35.993 13.811-66.717 29.182-95.692 47.11l2.412-1.39c54.514 48.023 121.608 83.063 195.685 99.586l2.955 0.554c-40.698-42.13-75.752-90.102-103.694-142.442l-1.666-3.418zM304.54 480h175.46v-140c-51.512-2.57-99.994-10.925-146.266-24.454l4.446 1.114c-18.313 48.152-30.372 103.845-33.576 161.899l-0.064 1.441zM480 276v-174.48c-45.489 43.302-83.682 93.73-112.901 149.593l-1.499 3.147-1.6 3.18c34.063 9.559 73.708 16.185 114.509 18.493l1.491 0.067zM544 101.52v174.48c42.292-2.375 81.937-9.001 119.979-19.496l-3.979 0.936-1.6-3.18c-30.716-59.018-68.91-109.453-114.165-152.538l-0.235-0.222zM544 340v140h175.46c-3.264-59.479-15.323-115.159-34.912-167.149l1.272 3.849c-41.834 12.414-90.319 20.755-140.344 23.242l-1.476 0.058zM783.54 544c-3.593 73.426-19.374 142.185-45.362 205.687l1.502-4.147c43.229 16.948 80.3 36.218 114.99 58.834l-2.41-1.474c60.197-69.709 99.295-159.144 106.514-257.438l0.086-1.462zM204.8 186.34c28.059 18.527 60.268 35.532 94.126 49.327l3.754 1.353c2-4 4-8 6-12 30.029-57.717 66.002-107.329 108.168-150.914l-0.168 0.174c-82.84 18.515-154.611 57.83-211.983 112.19l0.203-0.19zM704.6 107.7c-27.856-13.728-60.29-25.206-94.195-32.787l-2.945-0.553c41.954 43.401 77.895 93 106.234 147.201l1.666 3.499c2 4 4 8 6 12 37.602-15.142 69.805-32.148 99.977-51.987l-2.117 1.307c-32.816-31.102-70.607-57.406-111.967-77.516l-2.653-1.164z" />
<glyph unicode="&#xe93c;" glyph-name="member-notification" horiz-adv-x="1168" d="M1140.6 353.42l-144.28 20.96-61.32 124.26v148c0 0.22 0 0.44 0 0.66 0 0.64 0 1.26-0.1 1.9s0 0.88-0.14 1.32-0.18 1.32-0.3 2-0.14 0.8-0.24 1.18c-0.185 0.82-0.378 1.489-0.603 2.143l0.043-0.143c-0.1 0.34-0.18 0.66-0.28 0.98-0.26 0.74-0.54 1.48-0.86 2.22-0.1 0.26-0.2 0.52-0.32 0.78-0.32 0.74-0.7 1.48-1.1 2.2-0.14 0.24-0.24 0.48-0.38 0.72-0.38 0.66-0.82 1.3-1.24 2l-0.58 0.84c-0.38 0.52-0.8 1.020-1.22 1.52s-0.56 0.74-0.88 1.080v0c-0.5 0.54-1.040 1.040-1.56 1.56-0.22 0.22-0.44 0.46-0.66 0.66v0 0l-363.5 329.48c-5.657 5.142-13.206 8.29-21.49 8.29s-15.833-3.148-21.516-8.313l0.026 0.023-364.020-329.76c-0.56-0.56-1.14-1.1-1.68-1.68v0c-0.3-0.34-0.56-0.68-0.84-1.020s-0.86-1.040-1.26-1.58-0.36-0.54-0.54-0.82c-0.44-0.64-0.88-1.3-1.28-2l-0.48-0.88c-0.4-0.74-0.78-1.46-1.12-2.22-0.12-0.24-0.2-0.52-0.32-0.78-0.3-0.72-0.6-1.46-0.86-2.22 0-0.32-0.18-0.64-0.28-0.96-0.2-0.7-0.4-1.42-0.56-2.12 0-0.38-0.16-0.78-0.22-1.16s-0.24-1.32-0.32-2 0-0.86-0.12-1.3 0-1.26 0-1.9c0-0.22 0-0.44 0-0.66v-536c0-0.24 0-0.46 0-0.7 0-0.58 0-1.16 0-1.74s0-0.98 0.14-1.46 0.16-1.080 0.24-1.62 0.18-1 0.3-1.5 0.24-1.020 0.4-1.54 0.26-0.98 0.42-1.48l0.54-1.46c0.2-0.5 0.38-0.98 0.6-1.44s0.44-0.96 0.66-1.42 0.48-0.94 0.74-1.38 0.52-0.88 0.8-1.32 0.58-0.92 0.9-1.36 0.58-0.8 0.88-1.18 0.72-0.9 1.1-1.34l0.44-0.54c0.16-0.18 0.34-0.32 0.5-0.5s0.9-0.92 1.38-1.36 0.68-0.66 1.040-0.96l1.4-1.12 1.2-0.88c0.48-0.34 0.98-0.64 1.48-0.94s0.82-0.54 1.24-0.76 1.16-0.6 1.74-0.88l1.12-0.54c0.8-0.32 1.6-0.62 2.42-0.9l0.58-0.2c2.868-0.939 6.168-1.48 9.595-1.48 0.009 0 0.018 0 0.027 0h555.919l-4.34-25.3c-0.286-1.606-0.449-3.455-0.449-5.343 0-17.673 14.327-32 32-32 5.405 0 10.498 1.34 14.963 3.706l-0.174-0.084 129.040 67.84 129.040-67.84c4.314-2.311 9.437-3.668 14.877-3.668 17.673 0 32 14.327 32 32 0 1.904-0.166 3.768-0.485 5.581l0.028-0.192-24.5 143.7 104.4 101.76c5.963 5.818 9.661 13.933 9.661 22.912 0 16.051-11.817 29.341-27.225 31.646l-0.176 0.022zM680.4 355.56l-25.52 23.14 216.12 195.84v-76.34l-61-123.82zM539.58 932.84l315.78-286.12-248.14-224.84-46.14 41.82c-5.657 5.142-13.206 8.29-21.49 8.29s-15.833-3.148-21.516-8.313l0.026 0.023-46.1-41.84-248.34 224.86zM424.26 378.7l-216.26-195.86v391.72zM259 142.7l280.58 254.1 109.080-98.8c0.26-0.22 0.52-0.4 0.76-0.62l102.86-100.26-9.32-54.4zM997.22 231.18c-5.962-5.818-9.66-13.933-9.66-22.912 0-1.911 0.167-3.782 0.489-5.601l-0.028 0.193 16.52-96.36-86.54 45.5c-4.319 2.306-9.446 3.66-14.89 3.66s-10.571-1.354-15.064-3.744l0.174 0.084-86.54-45.5 16.52 96.36c0.293 1.626 0.46 3.498 0.46 5.408 0 8.979-3.698 17.094-9.654 22.905l-0.006 0.006-70 68.26 96.74 14c10.636 1.588 19.441 8.217 24.016 17.336l0.084 0.184 43.28 87.68 43.26-87.68c4.659-9.303 13.464-15.932 23.924-17.498l0.176-0.022 96.76-14z" />
<glyph unicode="&#xe93d;" glyph-name="member-download" horiz-adv-x="1232" d="M596.704 1008c-17.673 0-32-14.327-32-32v0-458.64l-140.7 140.64c-5.756 5.598-13.625 9.049-22.299 9.049-17.673 0-32-14.327-32-32 0-8.67 3.448-16.534 9.047-22.297l-0.007 0.008 195.26-195.28c0.74-0.74 1.52-1.44 2.32-2.1l0.62-0.46c0.62-0.48 1.24-0.96 1.9-1.4l0.58-0.36c0.7-0.44 1.38-0.88 2.12-1.26l0.42-0.2c0.629-0.35 1.418-0.732 2.227-1.075l0.173-0.065 0.3-0.12c0.86-0.34 1.74-0.66 2.66-0.94h0.3c0.9-0.26 1.8-0.5 2.72-0.68 0.26 0 0.54 0 0.8-0.12 0.628-0.135 1.413-0.255 2.21-0.333l0.090-0.007c0.957-0.115 2.065-0.18 3.189-0.18 0.004 0 0.008 0 0.012 0h-0.001c0.003 0 0.007 0 0.010 0 1.117 0 2.219 0.065 3.301 0.193l-0.131-0.013c0.895 0.084 1.687 0.204 2.464 0.365l-0.144-0.025c0.26 0 0.54 0 0.8 0.12 0.92 0.18 1.82 0.42 2.7 0.68h0.32c0.9 0.28 1.78 0.6 2.66 0.94l0.28 0.12c0.82 0.34 1.62 0.72 2.42 1.14l0.42 0.2c0.72 0.38 1.42 0.82 2.12 1.26 0.18 0.12 0.38 0.22 0.56 0.36 0.66 0.44 1.28 0.92 1.9 1.4l0.62 0.46c0.843 0.687 1.6 1.373 2.318 2.098l195.342 195.342c5.081 5.641 8.19 13.147 8.19 21.379 0 17.673-14.327 32-32 32-8.237 0-15.747-3.112-21.418-8.224l0.029 0.025-140.7-140.7v458.7c0 17.673-14.327 32-32 32v0zM1204.604 369.56l-153.76 22.34-68.84 139.32c-5.346 10.647-16.179 17.827-28.69 17.827s-23.344-7.179-28.606-17.643l-0.084-0.184-68.62-139.32-153.76-22.34c-15.584-2.327-27.401-15.617-27.401-31.668 0-8.979 3.698-17.094 9.655-22.906l0.006-0.006 66.64-64.98h-479.14v194.18c0 17.673-14.327 32-32 32s-32-14.327-32-32v0-226.18c0-17.673 14.327-32 32-32v0h552.18l-22.74-132.58c-0.291-1.62-0.457-3.485-0.457-5.388 0-17.673 14.327-32 32-32 5.44 0 10.563 1.358 15.049 3.752l-0.172-0.084 137.54 72.3 137.52-72.3c4.314-2.311 9.437-3.668 14.877-3.668 17.673 0 32 14.327 32 32 0 1.904-0.166 3.768-0.485 5.581l0.028-0.192-26.26 153.14 111.26 108.46c5.963 5.818 9.661 13.933 9.661 22.912 0 16.051-11.817 29.341-27.225 31.646l-0.176 0.022zM1054.364 240.6c-5.962-5.818-9.66-13.933-9.66-22.912 0-1.911 0.167-3.782 0.489-5.601l-0.028 0.193 18.14-105.8-95.020 50c-4.317 2.315-9.445 3.675-14.89 3.675s-10.573-1.36-15.062-3.759l0.172 0.084-95.020-50 18.14 105.8c0.293 1.626 0.46 3.497 0.46 5.407 0 0.033 0 0.065 0 0.098v-0.005 0.22c0 0.78 0 1.58-0.12 2.36-0.712 9.186-5.218 17.197-11.935 22.55l-0.065 0.050-74.42 72.54 106.24 15.44c10.633 1.584 19.436 8.205 24.016 17.316l0.084 0.184 47.52 96.28 47.5-96.28c4.664-9.295 13.467-15.916 23.924-17.478l0.176-0.022 106.24-15.44z" />
<glyph unicode="&#xe93e;" glyph-name="member-invite" d="M947.14 629.24c0 0.44 0 0.88-0.14 1.3s-0.18 1.34-0.3 2-0.14 0.76-0.22 1.16c-0.16 0.7-0.36 1.42-0.58 2.12-0.1 0.32-0.18 0.64-0.28 0.96-0.26 0.74-0.54 1.48-0.86 2.22-0.1 0.26-0.2 0.52-0.32 0.78-0.32 0.76-0.72 1.48-1.12 2.22-0.12 0.22-0.22 0.46-0.36 0.7-0.4 0.66-0.84 1.32-1.28 2l-0.52 0.8-1.3 1.62c-0.28 0.32-0.52 0.66-0.8 0.96v0.1c-0.56 0.62-1.14 1.18-1.74 1.74l-0.48 0.48-95.44 86.38v255.22c0 17.673-14.327 32-32 32v0h-594.8c-17.673 0-32-14.327-32-32v0-255.26l-95.8-86.8c-0.56-0.54-1.14-1.080-1.66-1.66l-0.82-1.020c-0.44-0.52-0.88-1.040-1.28-1.58s-0.34-0.54-0.52-0.82c-0.46-0.64-0.88-1.3-1.28-2-0.14-0.24-0.24-0.46-0.36-0.7-0.352-0.595-0.726-1.324-1.062-2.074l-0.058-0.146c-0.12-0.24-0.22-0.5-0.32-0.76-0.32-0.74-0.6-1.48-0.86-2.24 0-0.32-0.18-0.64-0.28-0.96-0.22-0.7-0.42-1.42-0.58-2.12 0-0.4-0.14-0.78-0.22-1.16s-0.22-1.32-0.3-2 0-0.86-0.14-1.3 0-1.26 0-2c0-0.22 0-0.44 0-0.68v-594.72c0-0.24 0-0.46 0-0.7 0-0.58 0-1.16 0-1.74s0-0.98 0.14-1.46 0.14-1.080 0.24-1.62 0.18-1 0.28-1.5 0.26-1.020 0.4-1.54 0.28-0.98 0.44-1.48 0.36-0.98 0.54-1.48 0.38-0.96 0.58-1.42 0.44-0.96 0.68-1.42l0.72-1.38c0.26-0.44 0.54-0.88 0.82-1.32s0.58-0.92 0.88-1.36l0.9-1.18c0.34-0.46 0.7-0.9 1.080-1.34l0.46-0.54 0.5-0.5c0.44-0.46 0.9-0.92 1.36-1.34s0.7-0.66 1.060-0.98l1.4-1.1c0.354-0.3 0.745-0.596 1.152-0.87l0.048-0.030c0.48-0.34 0.96-0.64 1.46-0.94l1.26-0.76c0.56-0.32 1.16-0.6 1.74-0.86s0.74-0.38 1.12-0.54c0.78-0.34 1.6-0.64 2.42-0.92l0.56-0.2c2.875-0.939 6.184-1.48 9.619-1.48 0.007 0 0.015 0 0.022 0h807.059c0.58 0 1.16 0 1.74 0l1.48 0.14 1.56 0.24 1.58 0.32c0.48 0 0.96 0.24 1.44 0.36l1.56 0.46 1.42 0.52c0.48 0.2 0.98 0.38 1.44 0.6l1.44 0.68 1.32 0.7c0.48 0.26 0.94 0.56 1.4 0.86s0.84 0.52 1.24 0.8l1.28 0.98 1.22 0.98c0.38 0.32 0.74 0.66 1.12 1.020l1.74 1.74c0.16 0.16 0.28 0.34 0.44 0.52s0.76 0.9 1.12 1.38l0.86 1.14c0.32 0.46 0.62 0.92 0.92 1.4s0.54 0.86 0.78 1.28 0.5 0.94 0.74 1.42 0.46 0.92 0.68 1.38 0.4 0.98 0.58 1.46 0.38 0.96 0.54 1.46 0.3 1 0.44 1.5 0.28 1 0.4 1.52 0.2 1 0.28 1.5 0.18 1.080 0.24 1.62 0.1 0.96 0.14 1.46 0 1.16 0.1 1.74c0 0.24 0 0.46 0 0.7v594.78c0 0.24 0 0.46 0 0.68-0.020 0.66-0.060 1.26-0.1 1.9zM191.64 508.4c0.937-0.966 1.929-1.862 2.976-2.692l0.064-0.048 194.68-176.32-248.62-225.18v450.36zM458.46 305.58v0l53.6 48.54 320.24-290.12h-640.56zM634.78 329.34l194.84 176.54c0.912 0.729 1.727 1.468 2.495 2.255l0.005 0.005 51.14 46.36v-450.32zM867.62 626.66l-26.22-23.74v47.5zM777.4 960v-415.060l-190.26-172.42-53.56 48.52c-5.66 5.156-13.219 8.313-21.516 8.313-7.189 0-13.825-2.371-19.167-6.373l0.083 0.060c-0.871-0.66-1.641-1.315-2.371-2.010l0.011 0.010-53.6-48.52-190.42 172.46v415.020zM182.6 602.94l-26.2 23.74 26.2 23.72zM402.62 658l-14.86-86.66c-0.291-1.62-0.457-3.485-0.457-5.388 0-17.673 14.327-32 32-32 5.44 0 10.563 1.358 15.049 3.752l-0.172-0.084 77.82 40.9 77.82-40.9c4.295-2.318 9.401-3.68 14.825-3.68 0.019 0 0.039 0 0.058 0h-0.003c17.673 0.001 31.999 14.327 31.999 32 0 1.908-0.167 3.776-0.487 5.592l0.028-0.192-14.86 86.66 62.96 61.36c5.995 5.822 9.715 13.959 9.715 22.964 0 16.070-11.845 29.373-27.28 31.654l-0.174 0.021-87 12.64-38.9 78.78c-5.342 10.659-16.181 17.847-28.7 17.847s-23.358-7.188-28.616-17.663l-0.084-0.184-38.9-78.84-87-12.58c-15.584-2.327-27.401-15.617-27.401-31.668 0-8.979 3.698-17.094 9.655-22.906l0.006-0.006zM470.24 725.66c10.593 1.615 19.355 8.229 23.916 17.316l0.084 0.184 17.76 35.78 17.66-35.78c4.664-9.295 13.467-15.916 23.924-17.478l0.176-0.022 39.48-5.66-28.58-28c-5.962-5.818-9.66-13.933-9.66-22.912 0-1.911 0.167-3.782 0.489-5.601l-0.028 0.193 6.74-39.32-35.3 18.56c-4.319 2.318-9.451 3.681-14.9 3.681s-10.581-1.362-15.072-3.764l0.172 0.084-35.3-18.56 6.74 39.32c0.293 1.626 0.46 3.498 0.46 5.408 0 8.979-3.698 17.094-9.654 22.905l-0.006 0.006-28.58 28z" />
<glyph unicode="&#xe93f;" glyph-name="member-lecture" horiz-adv-x="688" d="M644.71 660.807h-27.68v91.12c-0.004 8.835-3.588 16.832-9.38 22.62l-43.42 43.38c-5.792 5.792-13.792 9.374-22.63 9.374-17.675 0-32.004-14.329-32.004-32.004 0-8.838 3.582-16.838 9.374-22.63l34-34v-77.78h-30.080c-20.794 53.389-63.341 94.36-116.456 112.579l-1.344 0.401c42.801 22.564 71.48 66.757 71.48 117.649 0 73.211-59.349 132.56-132.56 132.56s-132.56-59.349-132.56-132.56c0-50.892 28.679-95.086 70.758-117.302l0.722-0.348c-54.459-18.62-97.006-59.591-117.353-111.68l-0.447-1.3h-30v77.7l34 34c5.383 5.713 8.691 13.432 8.691 21.924 0 17.673-14.327 32-32 32-8.437 0-16.112-3.265-21.829-8.602l0.019 0.017-43.44-43.44c-5.8-5.767-9.402-13.739-9.44-22.553v-91.047h-27.82c-0.005 0-0.010 0-0.015 0-17.673 0-32-14.327-32-32 0-2.756 0.348-5.43 1.003-7.982l-0.048 0.222 39.040-158.14c3.558-14.083 16.116-24.34 31.070-24.34 0.004 0 0.007 0 0.011 0h27.499v-374.72h-50.44c-17.673 0-32-14.327-32-32s14.327-32 32-32v0h569.16c17.673 0 32 14.327 32 32s-14.327 32-32 32v0h-50.44v374.72h27.5c0.003 0 0.007 0 0.010 0 14.953 0 27.511 10.257 31.022 24.119l0.047 0.221 39.040 158.14c0.594 2.306 0.935 4.953 0.935 7.68 0 17.671-14.324 31.997-31.995 32v0zM344.010 959.927c37.865 0 68.56-30.695 68.56-68.56s-30.695-68.56-68.56-68.56c-37.865 0-68.56 30.695-68.56 68.56v0c0.045 37.846 30.714 68.514 68.556 68.56h0.004zM344.010 719.927c0.121 0 0.264 0.001 0.407 0.001 44.947 0 84.445-23.327 107.049-58.535l0.304-0.506h-215.52c22.904 35.713 62.399 59.041 107.342 59.041 0.147 0 0.294 0 0.441-0.001h-0.023zM514.15 63.927h-340.28v374.72h340.28zM580.59 502.647h-473.16l-23.26 94.16h519.68z" />
<glyph unicode="&#xe940;" glyph-name="benefits" d="M76.86 29.56c0-0.48 0-0.98 0.14-1.46s0.14-1.080 0.24-1.62 0.18-1 0.28-1.5 0.26-1.020 0.4-1.52 0.28-1 0.44-1.5 0.36-0.98 0.54-1.46 0.38-0.98 0.58-1.44 0.44-0.94 0.68-1.42 0.48-0.92 0.74-1.38 0.52-0.88 0.8-1.32 0.58-0.92 0.9-1.36 0.58-0.78 0.88-1.18 0.72-0.9 1.1-1.34l0.44-0.54c0.16-0.18 0.34-0.32 0.5-0.5l1.36-1.36 1.060-0.96 1.4-1.1c0.4-0.32 0.78-0.62 1.2-0.9s0.98-0.64 1.46-0.94l1.26-0.76c0.56-0.32 1.16-0.6 1.74-0.88l1.12-0.52c0.78-0.34 1.6-0.64 2.42-0.92l0.56-0.2c2.875-0.939 6.184-1.48 9.619-1.48 0.007 0 0.015 0 0.022 0h808.979c0.5 0 1 0 1.52 0.16l1.54 0.22 1.58 0.32c0.48 0 0.96 0.24 1.42 0.36l1.58 0.46 1.42 0.52 1.44 0.6 1.44 0.68 1.32 0.7c0.48 0.26 0.94 0.56 1.42 0.86s0.82 0.52 1.2 0.8 0.88 0.64 1.32 0.98l1.2 0.98c0.38 0.32 0.76 0.66 1.12 1.020l1.74 1.74c0.16 0.16 0.28 0.36 0.44 0.52 0.38 0.46 0.76 0.9 1.12 1.38s0.58 0.76 0.86 1.16 0.62 0.9 0.92 1.38 0.54 0.86 0.78 1.28 0.5 0.94 0.74 1.42 0.46 0.92 0.68 1.38 0.4 0.98 0.58 1.46 0.38 0.96 0.54 1.46 0.3 1 0.44 1.5 0.28 1 0.38 1.52 0.22 1 0.3 1.5 0.18 1.080 0.24 1.62 0.1 0.98 0.14 1.46 0 1.16 0.1 1.74c0 0.24 0 0.46 0 0.7v594.78c0 0.24 0 0.46 0 0.68 0 0.64 0 1.26-0.1 2s0 0.88-0.14 1.32-0.18 1.3-0.3 2-0.14 0.78-0.24 1.18c-0.16 0.7-0.34 1.4-0.56 2.1-0.1 0.34-0.18 0.66-0.28 0.98-0.26 0.74-0.54 1.48-0.86 2.22-0.1 0.26-0.2 0.52-0.32 0.78-0.32 0.74-0.72 1.48-1.1 2.2-0.14 0.24-0.24 0.48-0.38 0.72-0.38 0.66-0.82 1.3-1.26 2l-0.54 0.82c-0.4 0.54-0.84 1.060-1.28 1.58s-0.54 0.68-0.82 1.020v0c-0.52 0.58-1.080 1.1-1.62 1.62-0.22 0.2-0.4 0.42-0.6 0.6v0 0l-403.26 365.24c-5.655 5.136-13.2 8.281-21.48 8.281s-15.825-3.144-21.506-8.304l0.026 0.024-403.76-365.72c-0.58-0.56-1.18-1.12-1.72-1.72l-0.82-1.020c-0.44-0.52-0.88-1.040-1.26-1.58s-0.36-0.54-0.54-0.82c-0.46-0.64-0.88-1.3-1.28-2-0.14-0.24-0.24-0.48-0.36-0.7-0.4-0.74-0.8-1.46-1.12-2.22-0.12-0.26-0.22-0.52-0.32-0.78-0.32-0.72-0.6-1.48-0.86-2.22 0-0.32-0.18-0.64-0.28-0.96-0.22-0.7-0.4-1.42-0.56-2.12-0.1-0.4-0.16-0.78-0.24-1.16s-0.22-1.34-0.3-2 0-0.86-0.14-1.3 0-1.26 0-2c0-0.22 0-0.44 0-0.68v-594.72c0-0.24 0-0.46 0-0.7-0.28-0.58-0.24-1.16-0.2-1.74zM389.36 329.34l-248.62-225.18v450.36zM458.5 305.62l53.6 48.54 320.2-290.16h-640.56l266.76 241.6zM634.8 329.34l248.46 225.16v-450.32zM512.1 948.82l355.52-322.14-280.48-254.16-53.56 48.52c-5.655 5.136-13.2 8.281-21.48 8.281s-15.825-3.144-21.506-8.304l0.026 0.024-53.6-48.52-280.62 254.14z" />
<glyph unicode="&#xe941;" glyph-name="coupon" d="M315.48 588.34c-17.673 0-32-14.327-32-32v0-90c0-17.673 14.327-32 32-32s32 14.327 32 32v0 90c0 17.673-14.327 32-32 32v0zM992 818.34h-960c-17.673 0-32-14.327-32-32v0-155.66c0-17.673 14.327-32 32-32v0c47.872 0 86.68-38.808 86.68-86.68s-38.808-86.68-86.68-86.68v0c-17.673 0-32-14.327-32-32v0-155.66c0-17.673 14.327-32 32-32v0h960c17.673 0 32 14.327 32 32v0 155.66c0 17.673-14.327 32-32 32v0c-47.872 0-86.68 38.808-86.68 86.68s38.808 86.68 86.68 86.68v0c17.673 0 32 14.327 32 32v0 155.66c0 17.673-14.327 32-32 32v0zM960 659.26c-68.351-15.243-118.685-75.374-118.685-147.26s50.333-132.017 117.68-147.071l1.005-0.189v-95.080h-612.52v56.68c0 17.673-14.327 32-32 32s-32-14.327-32-32v0-56.68h-219.48v95.080c68.351 15.243 118.685 75.374 118.685 147.26s-50.333 132.017-117.68 147.071l-1.005 0.189v95.080h219.48v-58c0-17.673 14.327-32 32-32s32 14.327 32 32v0 58h612.52z" />
<glyph unicode="&#xe942;" glyph-name="gift" d="M992 733.58h-232c20.533 16.405 37.74 35.936 51.151 58.027l0.549 0.973c0.46 0.74 0.86 1.4 1.22 2 11.8 18.7 25.52 62 14.96 104.76-8 32.28-28.52 58.76-59.38 76.54-75.020 43.22-153.4 7.34-215.020-98.48-29.2-50.14-38-108.14-40.44-143.76h-1.9c-2.5 35.62-11.26 93.62-40.46 143.76-61.6 105.82-140 141.7-215 98.48-30.9-17.88-51.44-44.32-59.42-76.62-10.58-42.72 3.16-86 14.96-104.74 0.36-0.54 0.76-1.2 1.2-2 13.976-23.058 31.188-42.587 51.283-58.662l0.437-0.338h-232.14c-17.673 0-32-14.327-32-32v0-192c0-17.673 14.327-32 32-32v0h31.58v-415.1c0-17.673 14.327-32 32-32v0h832.84c17.673 0 32 14.327 32 32v0 415.24h31.58c17.673 0 32 14.327 32 32v0 192c-0.045 17.639-14.355 31.92-32 31.92 0 0 0 0 0 0v0zM608.76 845.14c20.36 34.98 42.44 60.52 63.82 73.84 11.38 7.1 22.16 10.64 32.96 10.64 10.12 0 20.26-3.080 30.96-9.26 15.78-9.080 25.32-20.94 29.16-36.22 6-24-3.64-50.18-6.9-55.44-0.48-0.74-1.020-1.62-1.62-2.62-12.771-21.154-29.631-38.582-49.611-51.627l-0.609-0.373c-33.72-22.3-77.2-35.48-129.6-39.3 2.52 29.22 9.96 73.48 31.44 110.36zM258.44 884.14c3.84 15.28 13.38 27.14 29.16 36.22 10.7 6.18 20.84 9.26 30.94 9.26 10.82 0 21.58-3.54 32.98-10.64 21.38-13.32 43.44-38.86 63.82-73.84 21.48-36.88 28.92-81.14 31.44-110.38-52.4 3.82-95.88 17-129.6 39.3-20.594 13.412-37.455 30.841-49.822 51.292l-0.398 0.708-1.62 2.62c-3.34 5.32-12.94 31.46-6.9 55.46zM960 541.66h-416v128h416zM64 669.66h416v-128h-416zM127.58 477.2h352.42v-382.78h-352.42zM896.42 94.42h-352.42v382.7h352.42z" />
<glyph unicode="&#xe943;" glyph-name="member-only" d="M780.9 121.82c17.673 0 32 14.327 32 32v0 71.46c0 17.673-14.327 32-32 32s-32-14.327-32-32v0-71.46c0-17.673 14.327-32 32-32v0zM40 146.8h505.8v-114.8c0-17.673 14.327-32 32-32v0h406.2c17.673 0 32 14.327 32 32v0 315.1c0 17.673-14.327 32-32 32v0h-286v97.82c0 44.183 35.817 80 80 80v0h6c44.183 0 80-35.817 80-80v0c0-17.673 14.327-32 32-32s32 14.327 32 32v0c-0.068 79.502-64.498 143.932-143.993 144h-6.007c-0.003 0-0.006 0-0.009 0-10.796 0-21.313-1.195-31.426-3.46l0.955 0.18v374.36c0 17.673-14.327 32-32 32v0h-675.52c-17.673 0-32-14.327-32-32v0-813.2c0-17.673 14.327-32 32-32v0zM952 64h-342v251.1h342zM72 960h611.4v-374.62c-30.339-26.47-49.4-65.202-49.4-108.385 0-0.026 0-0.053 0-0.079v0.004-97.82h-56c-17.673 0-32-14.327-32-32v0-136.3h-474zM217.1 744.96h322.26c17.673 0 32 14.327 32 32s-14.327 32-32 32v0h-322.26c-17.673 0-32-14.327-32-32s14.327-32 32-32v0zM217.1 562.12h322.26c17.673 0 32 14.327 32 32s-14.327 32-32 32v0h-322.26c-17.673 0-32-14.327-32-32s14.327-32 32-32v0zM571.36 411.28c0 17.673-14.327 32-32 32v0h-322.26c-17.673 0-32-14.327-32-32s14.327-32 32-32v0h322.26c17.673 0 32 14.327 32 32v0z" />
<glyph unicode="&#xe944;" glyph-name="security" d="M899.634 837.689c-160.588 0-283.615 46.188-387.647 148.026-104.021-101.838-227.044-148.026-387.618-148.026 0-265.207-54.51-645.114 387.615-799.404 442.159 154.285 387.65 534.195 387.65 799.404zM489.478 352.19l-138.747 139.697 62.122 62.535 76.624-77.155 145.638 146.618 62.119-62.535-207.757-209.159z" />
<glyph unicode="&#xe945;" glyph-name="pushpin" d="M39.44 86.109c-10.422-11.91-9.827-29.862 1.366-41.057l4.245-4.248c11.193-11.19 29.146-11.79 41.057-1.363l291.492 255.037-83.122 83.122-255.038-291.491zM990.569 662.57c-0.99 3.077-25.502 76.686-138.416 189.593-112.905 112.908-186.518 137.423-189.586 138.406-10.672 3.423-22.358 0.597-30.285-7.33l-112.701-112.701c-11.67-11.672-11.67-30.608 0-42.283l16.83-19.828-300.771-221.333c-6.805-5.25-11.020-13.177-11.574-21.755-0.548-8.578 2.621-16.981 8.699-23.059l309.518-309.522c6.085-6.079 14.49-9.247 23.060-8.696 8.581 0.554 16.508 4.767 21.761 11.574 139.124 204.431 210.724 306.645 214.797 306.645s12.862-7.568 26.363-22.705c11.664-11.675 30.602-11.675 42.277 0l112.701 112.698c7.927 7.936 10.756 19.622 7.33 30.294z" />
<glyph unicode="&#xe946;" glyph-name="facebook-f" d="M608 832h160v192h-160c-123.514 0-224-100.486-224-224v-96h-128v-192h128v-512h192v512h160l32 192h-192v96c0 17.346 14.654 32 32 32z" />
<glyph unicode="&#xe947;" glyph-name="mail-filled" d="M535.3 366.8c-6.4-6.4-14.9-9.7-23.3-9.7s-16.9 3.2-23.3 9.7l-96.8 96.8-344-343.9h928.2l-343.9 343.9-96.9-96.8zM415.2 533.6v0l96.8-96.8 467.5 467.5h-935l370.7-370.7zM0 856.6v-692.6l346.3 346.3zM1024 856.7l-346.4-346.4 346.4-346.4z" />
<glyph unicode="&#xe948;" glyph-name="link" d="M388.678 241.691l-46.656-46.368c-40.378-40.032-106.157-40.032-146.592 0-19.354 19.238-30.010 44.87-30.010 72.116s10.714 52.762 30.010 72.116l171.648 170.208c35.54 35.309 102.47 87.264 151.258 38.88 22.406-22.234 58.522-22.118 80.813 0.288 22.176 22.406 22.061 58.58-0.346 80.756-82.829 82.253-205.402 67.046-312.134-38.88l-171.648-170.266c-41.184-40.838-63.821-95.27-63.821-153.101 0-57.946 22.694-112.262 63.821-153.101 42.394-42.048 98.035-63.13 153.734-63.13s111.398 21.024 153.734 63.13l46.714 46.368c22.406 22.176 22.522 58.292 0.288 80.64-22.292 22.349-58.406 22.464-80.813 0.346zM908.921 903.17c-89.108 88.358-213.638 93.14-296.006 11.348l-58.118-57.716c-22.406-22.234-22.58-58.349-0.346-80.698 22.234-22.406 58.349-22.522 80.756-0.288l58.176 57.658c42.624 42.394 98.554 24.826 135.13-11.348 19.354-19.296 30.068-44.87 30.068-72.116s-10.714-52.82-30.068-72.058l-183.168-181.67c-83.75-83.002-123.034-44.122-139.795-27.476-22.406 22.234-58.522 22.061-80.698-0.288-22.234-22.406-22.118-58.58 0.288-80.698 38.477-38.132 82.368-57.024 128.333-57.024 56.276 0 115.776 28.34 172.397 84.5l183.168 181.613c41.012 40.896 63.764 95.27 63.764 153.101 0 57.888-22.752 112.262-63.878 153.158z" />
<glyph unicode="&#xe949;" glyph-name="download-pdf" d="M491.725 450.287c0.614-0.614 1.365-1.297 2.116-1.911 0.068-0.068 0.205-0.137 0.273-0.205l0.956-0.751c0.273-0.205 0.683-0.478 1.161-0.819 0.273-0.205 0.546-0.341 0.819-0.478l1.229-0.751c0.068-0.068 0.137-0.068 0.205-0.068 0.546-0.273 1.024-0.546 1.502-0.751l0.137-0.068c0.273-0.137 0.683-0.341 1.161-0.546l2.321-0.819c0.478-0.137 0.819-0.273 1.229-0.341l0.41-0.137c0.41-0.137 0.819-0.205 1.229-0.273s0.819-0.137 1.229-0.205l0.478-0.068c0.41-0.068 0.751-0.137 1.024-0.137 1.024-0.068 1.911-0.137 2.799-0.137 0.751 0 1.707 0 2.799 0.137 0.546 0.068 1.024 0.137 1.229 0.205v0c0.41 0.068 1.024 0.137 1.707 0.273 0.205 0.068 0.41 0.068 0.683 0.137 0.137 0.068 0.273 0.068 0.478 0.137 0.068 0 0.205 0.068 0.273 0.068l1.161 0.341c0.41 0.137 0.751 0.273 1.092 0.341l1.297 0.478c0.205 0.068 0.41 0.137 0.614 0.273l1.229 0.546c0.341 0.137 0.751 0.341 1.161 0.614 0.41 0.205 0.819 0.478 1.229 0.751l0.137 0.068c0.273 0.137 0.614 0.341 1.024 0.614 0.273 0.205 0.546 0.41 0.887 0.614l0.41 0.273c0.41 0.273 0.614 0.478 0.956 0.751 0.751 0.614 1.434 1.229 2.048 1.911l173.466 173.466c5.393 5.393 8.397 12.629 8.397 20.275 0 15.838-12.834 28.672-28.672 28.672-7.646 0-14.882-3.004-20.275-8.397l-124.655-124.587v452.949c0 15.838-12.834 28.672-28.672 28.672s-28.672-12.834-28.672-28.672v-452.949l-124.518 124.518c-5.393 5.393-12.629 8.397-20.275 8.397-15.838 0-28.672-12.834-28.672-28.672 0-7.646 3.004-14.882 8.397-20.275l173.466-173.466zM828.894 573.781c-15.838 0-28.672-12.834-28.672-28.672v-172.237h-576.444v172.237c0 15.838-12.834 28.672-28.672 28.672s-28.672-12.834-28.672-28.672v-200.909c0-15.838 12.834-28.672 28.672-28.672h633.719c15.838 0 28.672 12.834 28.672 28.672v200.909c0.068 15.838-12.834 28.672-28.604 28.672zM360.175 238.319v0c-8.67 6.007-19.388 10.103-31.881 12.151-8.67 1.57-21.163 2.389-37.205 2.389h-89.225c-3.755 0-6.827-3.072-6.827-6.827v-236.544c0-3.755 3.072-6.827 6.827-6.827h31.334c3.755 0 6.827 3.072 6.827 6.827v89.361h53.862c35.294 0 60.348 7.782 74.411 23.074 13.926 15.155 21.026 33.929 21.026 55.706 0 12.698-2.662 24.576-7.851 35.294-5.393 10.718-12.493 19.319-21.299 25.395zM294.298 140.356h-54.34v70.929h53.658c16.862 0 24.235-1.024 27.375-1.843 6.69-1.843 11.947-5.53 16.043-11.332 4.164-5.803 6.212-13.039 6.212-21.436 0-11.742-3.413-20.48-10.445-26.692-7.1-6.417-20.070-9.626-38.502-9.626zM584.977 230.878c-10.377 8.875-23.006 15.019-37.547 18.364-10.172 2.389-24.849 3.55-43.691 3.55h-81.442c-3.755 0-6.827-3.072-6.827-6.827v-236.544c0-3.755 3.072-6.827 6.827-6.827h85.333c14.814 0 28.126 1.434 39.595 4.233 11.742 2.867 21.982 7.168 30.447 12.834s16.247 13.449 23.279 23.142c6.963 9.694 12.766 21.914 17.135 36.454 4.369 14.473 6.554 31.198 6.554 49.766 0 21.777-3.277 41.506-9.694 58.641-6.554 17.408-16.657 31.949-29.969 43.213zM578.765 129.502c0-17.067-1.98-31.676-5.871-43.418-3.755-11.469-9.079-20.617-15.701-27.238-4.506-4.506-10.718-8.055-18.5-10.581-8.124-2.662-19.797-4.028-34.611-4.028h-43.691v167.049h42.871c17.681 0 30.515-1.502 38.025-4.369 10.103-3.959 18.978-12.015 26.283-23.893 7.441-12.22 11.196-30.174 11.196-53.521zM822.135 252.791h-159.607c-3.755 0-6.827-3.072-6.827-6.827v-236.544c0-3.755 3.072-6.827 6.827-6.827h31.334c3.755 0 6.827 3.072 6.827 6.827v100.625h104.175c3.755 0 6.827 3.072 6.827 6.827v27.921c0 3.755-3.072 6.827-6.827 6.827h-104.175v59.597h121.446c3.755 0 6.827 3.072 6.827 6.827v27.921c0 3.823-3.072 6.827-6.827 6.827z" />
<glyph unicode="&#xe94a;" glyph-name="zoom" d="M291.21 758.25h109.54c9.941 0 18 8.059 18 18s-8.059 18-18 18v0h-153c-0.627 0-1.246-0.033-1.856-0.096l0.076 0.006-0.78-0.11-1-0.15c-0.3-0.060-0.59-0.14-0.88-0.22-0.338-0.068-0.617-0.14-0.89-0.226l0.060 0.016c-0.28-0.080-0.56-0.19-0.85-0.29s-0.54-0.19-0.81-0.3-0.51-0.24-0.77-0.36-0.55-0.25-0.83-0.4-0.47-0.28-0.71-0.42-0.54-0.31-0.8-0.48l-0.75-0.55c-0.22-0.17-0.44-0.32-0.66-0.5-0.43-0.36-0.85-0.73-1.25-1.13l-0.050-0.040-0.060-0.070c-0.4-0.4-0.77-0.82-1.13-1.25-0.18-0.21-0.33-0.44-0.49-0.66s-0.38-0.49-0.56-0.75-0.32-0.53-0.48-0.8-0.29-0.47-0.42-0.71-0.27-0.55-0.4-0.83-0.25-0.51-0.36-0.77-0.2-0.54-0.3-0.81-0.21-0.57-0.29-0.85-0.15-0.55-0.21-0.82-0.16-0.59-0.22-0.89-0.1-0.64-0.15-1-0.080-0.53-0.11-0.79c-0.057-0.534-0.090-1.153-0.090-1.78v0-153c0-9.941 8.059-18 18-18s18 8.059 18 18v0 109.57l168.42-168.39c3.228-3.096 7.617-5.002 12.452-5.002 9.941 0 18 8.059 18 18 0 4.835-1.906 9.225-5.008 12.459l0.006-0.006zM779.77 230.1c0.3 0.060 0.6 0.14 0.9 0.22s0.54 0.13 0.8 0.21 0.59 0.2 0.88 0.3 0.53 0.18 0.78 0.29 0.55 0.25 0.82 0.38l0.78 0.37c0.26 0.14 0.51 0.3 0.77 0.46s0.5 0.29 0.74 0.45 0.56 0.41 0.84 0.62 0.39 0.27 0.57 0.43c0.931 0.763 1.757 1.589 2.495 2.489l0.025 0.031c0.16 0.19 0.3 0.39 0.44 0.58s0.42 0.54 0.61 0.83 0.31 0.5 0.46 0.76 0.31 0.49 0.44 0.75c0.122 0.212 0.252 0.475 0.369 0.745l0.021 0.055c0.13 0.27 0.26 0.52 0.37 0.79s0.2 0.54 0.29 0.81c0.095 0.219 0.197 0.501 0.284 0.789l0.016 0.061c0.090 0.28 0.15 0.55 0.22 0.83s0.15 0.58 0.21 0.88 0.1 0.65 0.15 1 0.080 0.5 0.11 0.76c0.057 0.535 0.090 1.156 0.090 1.784 0 0.002 0 0.004 0 0.006v0 153c0 9.941-8.059 18-18 18s-18-8.059-18-18v0-109.57l-168.4 168.39c-3.228 3.096-7.617 5.002-12.452 5.002-9.941 0-18-8.059-18-18 0-4.835 1.906-9.225 5.008-12.459l168.384-168.394h-109.54c-9.941 0-18-8.059-18-18s8.059-18 18-18v0h153c0.627 0 1.246 0.033 1.856 0.096l-0.076-0.006c0.27 0 0.53 0.080 0.8 0.12s0.62 0.040 0.94 0.14z" />
<glyph unicode="&#xe94b;" glyph-name="note" d="M512 988c262.816-0.197 475.794-213.297 475.794-476.14 0-195.926-118.338-364.212-287.438-437.283l-3.086-1.187c-54.679-23.724-118.363-37.524-185.27-37.524-262.962 0-476.134 213.173-476.134 476.134 0 196.055 118.495 364.433 287.774 437.424l3.090 1.186c54.393 23.639 117.75 37.391 184.32 37.391 0.334 0 0.668 0 1.002-0.001h-0.052zM512 1024v0c-282.77 0-512-229.23-512-512v0c0-282.77 229.23-512 512-512v0c282.77 0 512 229.23 512 512v0c0 282.77-229.23 512-512 512zM213 704.060h242.9l-0.66-40.92h-242.24zM236.78 518.6h204.6v-39.6h-204.6zM440.72 609.68v-39.6h-194v39.6zM439.4 248h-145.2v-32.34h-44.88v214.5h190.080zM336.4 706c-5.94 23.1-25.080 56.76-42.9 82.5l37 17.82c19.14-24.42 38.28-58.080 45.54-79.86zM294.2 391.22v-104.94h99.66v104.94zM811 280.34v-46.2h-349.82v46.2h145.2v170.94h-122.1v45.54h122.1v137.94h-133.32v46.86h325.38v-46.86h-143.88v-137.94h128.7v-45.54h-128.7v-170.94zM626.2 682.94c-11.22 28.38-39.6 72.6-66.66 104.94l38.28 20.46c26.4-31 56.1-73.92 69.3-101.64z" />
<glyph unicode="&#xe94c;" glyph-name="volume" horiz-adv-x="1152" d="M652.2 7.4l-311.6 269.4h-237c-16.8 0-30.4 13.6-30.4 30.4v409.6c0 16.8 13.6 30.4 30.4 30.4h237l311.6 269.4c19.6 17 50.2 3 50.2-23v-963.2c0-26-30.6-40-50.2-23zM843.4 254.8c-9 0-18 3.8-24.4 11.2-11.4 13.4-10 33.6 3.6 45.2 0.2 0 21.8 19.2 43.2 54.6 28.2 46.6 42.4 98.2 42.4 153.2 0 129.8-80.2 190-83.6 192.4l18.8 26 18.6 26c4.4-3.2 110.2-80.6 110.2-244.4 0-162.2-103.6-252.6-108-256.4-6-5.2-13.4-7.8-20.8-7.8zM919.8 110c-9 0-18 3.8-24.4 11.2-11.4 13.4-10 33.6 3.6 45.2 0.4 0.2 37.6 32.8 74.4 93.2 48.8 80.2 73.4 168.8 73.4 263.8 0 94.2-24.4 178.6-72.4 251.2-36.2 54.4-72.8 81.4-73.2 81.6-14.4 10.2-17.6 30.2-7.4 44.6s30.2 17.6 44.6 7.4c1.8-1.2 45-32.4 87.4-95.6 38.8-57.6 85-154.4 85-289.2 0-134.2-45.8-236.8-84.2-299.4-42-68.2-84.2-104.6-86-106.2-6.2-5.2-13.6-7.8-20.8-7.8z" />
<glyph unicode="&#xe94d;" glyph-name="play-solid" horiz-adv-x="896" d="M848.8 594.6l-704 416.2c-57.2 33.8-144.8 1-144.8-82.6v-832.2c0-75 81.4-120.2 144.8-82.6l704 416c62.8 37 63 128.2 0 165.2z" />
<glyph unicode="&#xe94e;" glyph-name="headphones" d="M943.6 472.2v85.2c0 114.8-45 223.2-126.8 304.8-81.6 81.8-190 127-304.8 127s-223.2-45-304.8-126.8-126.8-190-126.8-304.8v-85.2c-44.8-3.2-80.4-40.6-80.4-86v-140c0-47.2 38.6-86 86-86h17.8c4 0 7.8 0.2 11.6 0.8v-11c0-46 37.6-83.4 83.4-83.4v0c46 0 83.4 37.6 83.4 83.4v332.4c0 46-37.6 83.4-83.4 83.4v0c-20.8 0-39.8-7.8-54.6-20.4v11.8c0 97.8 38.4 190 108 259.6s161.8 108 259.6 108 190-38.4 259.6-108c69.6-69.6 108-161.8 108-259.6v-11.8c-14.6 12.8-33.8 20.4-54.6 20.4v0c-46 0-83.4-37.6-83.4-83.4v-332.2c0-46 37.6-83.4 83.4-83.4v0c46 0 83.4 37.6 83.4 83.4v11c3.8-0.6 7.6-0.8 11.6-0.8h17.8c47.2 0 86 38.6 86 86v140c0.4 45.2-35.2 82.6-80 85.6z" />
</font>
</defs>
</svg>
